<svg width="14" height="20" xmlns="http://www.w3.org/2000/svg" xmlns:xlink="http://www.w3.org/1999/xlink"><defs><path id="a" d="M0 .016h13.867v19.811H0z"/></defs><g fill="none" fill-rule="evenodd"><path d="M11.204 12.47v4.909L7.5 19.517v-7.379l2.068 1.194h.001c.018.01.038.014.058.016.004 0 .008.003.013.003.02 0 .039-.004.058-.012.002-.001.003-.004.006-.005l.006-.002 1.494-.862zM.464 7.745l4.432-4.757 4.433 9.876-1.9-1.097-.009-.002a.145.145 0 00-.026-.01c-.01-.002-.019-.005-.028-.005l-.009-.002c-.006 0-.011.003-.017.004a.132.132 0 00-.029.005.13.13 0 00-.025.012.107.107 0 00-.041.037c-.004.005-.009.008-.012.013-.001.003-.001.006-.003.008-.004.009-.006.018-.008.027-.003.01-.006.019-.006.028l-.002.009v7.626l-4.553-2.629v-7.79c0-.007-.003-.012-.003-.018l-.006-.03a.1.1 0 00-.012-.023l-.015-.023a.142.142 0 00-.022-.019c-.005-.003-.008-.008-.013-.012L.463 7.745zm12.982 3.1l-3.74 2.16L5.12 2.794 8.86.633l4.585 10.213zm.325.05c-.001-.01-.004-.019-.007-.029-.002-.006-.002-.013-.005-.02L9.058.371 9.054.365C9.052.363 9.052.361 9.05.358c-.003-.006-.01-.01-.014-.016-.006-.007-.011-.015-.018-.02-.008-.007-.016-.01-.024-.016C8.987.302 8.98.298 8.97.296 8.962.291 8.953.29 8.943.29c-.008 0-.017-.002-.025-.001-.01 0-.02.003-.03.006L8.869.3l-.005.005-.007.002-3.99 2.304-.016.014a.017.017 0 00-.004.003c-.004.004-.01.006-.013.01l-4.7 5.045c-.004.004-.005.01-.008.014-.004.004-.008.007-.011.012-.003.004-.003.008-.004.012a.18.18 0 00-.013.054l.001.026c.001.01.003.018.007.027.002.008.006.016.01.023a.17.17 0 00.018.024l.007.01c.004.004.01.005.014.009l.012.01 2.21 1.276v7.792c0 .006.003.01.004.017a.117.117 0 00.018.053c.004.008.008.016.014.022.007.008.015.014.022.02.005.003.009.009.014.011l4.838 2.795c.003 0 .006 0 .008.002.019.01.04.016.063.016h.001a.138.138 0 00.063-.016l.007-.002 3.99-2.304c.006-.003.009-.008.014-.012a.18.18 0 00.022-.02.162.162 0 00.027-.046.136.136 0 00.005-.029c.001-.006.004-.011.004-.017v-5.156L13.7 11.03c.006-.004.01-.01.016-.015.007-.006.015-.011.02-.018.007-.007.01-.016.015-.023.004-.009.01-.016.012-.025.003-.008.003-.017.005-.027l.002-.026z" fill="#000"/><g transform="translate(0 .176)"><mask id="b" fill="#fff"><use xlink:href="#a"/></mask><path d="M5.244 2.656L9.75 12.693l3.574-2.063L8.817.593 5.244 2.656zm4.417 10.31L4.998 2.576 8.906.32l4.663 10.39-3.908 2.256zm-6.904 3.69l4.36 2.519.004-7.486a.253.253 0 01.006-.03c.005-.019.009-.034.017-.05.016-.03.025-.04.03-.044a.192.192 0 01.067-.057.216.216 0 01.085-.028l.031-.004c.014 0 .025.002.032.004l.025.005a.301.301 0 01.038.012l.022.01 1.645.949-4.252-9.472-4.25 4.562 2.05 1.191c.006.004.019.014.031.029a.246.246 0 01.055.124l.004.031v7.736zm4.553 2.852l-4.745-2.74V8.921l.082-.058-.089.038-.03-.03L.31 7.592 4.924 2.64l4.614 10.28-2.184-1.25-.036.023.002-.006-.01.04v7.78zm.286-7.38v7.047l3.512-2.028V12.46l-1.38.791a.222.222 0 01-.088.02l-.033-.006a.252.252 0 01-.06-.014h-.004l-.023-.013-1.924-1.11zm-.192 7.38v-7.713l2.243 1.283.005-.001.023-.011 1.626-.939v5.131l-.049.028-3.848 2.222zm-.075.118h.001c.038.017.027.014.048.003l.014-.007 3.978-2.297.099.03-.083-.049.01-.038-.002-5.194 2.259-1.305c-.007.003-.001-.002.004-.006l.095.033-.08-.052.002-.02-.007-.027L8.964.227l-.01-.011-.02-.006-.022.002V.211l-.017.008L4.89 2.537.203 7.572a.055.055 0 01-.003.006l-.004.007v.001l-.002.026-.061.086.07-.066.026.023 2.244 1.293v7.847l-.083.056.09-.035.014.015-.053.081.068-.068 4.82 2.782zm.029.201a.232.232 0 01-.09-.018H7.26l-.023-.013-4.865-2.815a.205.205 0 01-.056-.063.208.208 0 01-.023-.05c-.006-.013-.008-.03-.01-.042l-.004-.031V9.059L.055 7.754a.226.226 0 01-.048-.204.243.243 0 01.016-.048l.008-.02a.104.104 0 01.02-.024H.05c-.001 0 .003-.007.01-.015l4.73-5.07h-.001l.01-.007c-.01.004.004-.007.017-.014L8.828.038c.022-.01.033-.012.039-.013A.198.198 0 018.91.016a.321.321 0 01.093.012c.012.004.023.01.035.016a.29.29 0 01.04.026.192.192 0 01.03.032c.007.006.017.016.026.031l.01.025 4.709 10.485.005.024c.004.016.007.03.008.045.001.014 0 .026-.001.04a.26.26 0 01-.01.05.268.268 0 01-.044.08.213.213 0 01-.03.028c-.007.006-.016.016-.03.024l-2.165 1.25-.006 5.137c.001.002-.001.02-.008.04a.241.241 0 01-.08.112l-.027.02-4.019 2.316a.222.222 0 01-.088.018z" fill="#000" mask="url(#b)"/></g><path fill="#000" d="M13.446 10.846l-3.741 2.16L5.121 2.793 8.86.633z"/><path d="M.463 7.745l4.433-4.757 4.433 9.876-1.9-1.097-.009-.002c-.008-.005-.017-.007-.026-.01-.01-.002-.019-.005-.028-.005l-.009-.002c-.006 0-.011.003-.017.004a.132.132 0 00-.029.005.13.13 0 00-.025.012.115.115 0 00-.021.015c-.008.006-.014.014-.02.022l-.012.013c-.001.003-.001.006-.003.008-.004.009-.006.018-.008.027-.003.01-.006.019-.006.028l-.002.009v7.626l-4.553-2.629V9.097c0-.006-.003-.011-.003-.017a.116.116 0 00-.018-.053c-.005-.008-.009-.016-.015-.023a.132.132 0 00-.022-.019c-.005-.003-.008-.008-.013-.012L.463 7.745z" fill="none"/><path d="M11.204 12.47v4.909L7.5 19.517v-7.379l2.068 1.194h.001c.018.01.038.014.058.016.004 0 .008.003.013.003.02 0 .039-.004.058-.012.002-.001.003-.004.006-.005l.006-.002 1.494-.862z" fill="#000"/></g></svg>