<svg width="11" height="21" xmlns="http://www.w3.org/2000/svg" xmlns:xlink="http://www.w3.org/1999/xlink"><defs><path id="a" d="M.024.07H10.05v19.31H.024z"/><path id="c" d="M0 .033h10.028v19.31H0z"/><path id="e" d="M0 .033h10.028v19.31H0z"/></defs><g fill="none" fill-rule="evenodd"><g transform="translate(.76 .727)"><mask id="b" fill="#EBF2FF"><use xlink:href="#a"/></mask><path d="M7.208 3.464c.05-.024.102-.046.159-.066.226-.08.51-.121.867-.121h.779l1.038-.001V.206A24.26 24.26 0 007.403.07 6.14 6.14 0 006.92.09a5.212 5.212 0 00-.899.148c-1.85.48-3.034 1.984-3.034 4.37V7.14H.024v3.433h2.964v8.808h3.545v-8.808h2.956l.15-1.168.293-2.265h-3.4V4.948c0-.684.131-1.217.676-1.484" fill="#000" mask="url(#b)"/></g><g transform="translate(0 .157)"><mask id="d" fill="#EBF2FF"><use xlink:href="#c"/></mask><path d="M6.509 19.343v-8.808h2.956l.443-3.433h-3.4V4.91c0-.994.277-1.67 1.702-1.67l1.818-.002V.168A24.244 24.244 0 007.379.033c-2.62 0-4.415 1.6-4.415 4.537v2.532H0v3.433h2.964v8.808H6.51z" fill="#EBF2FF" mask="url(#d)"/></g><g transform="translate(0 .157)"><mask id="f" fill="#EBF2FF"><use xlink:href="#e"/></mask><path d="M7.379.033c-2.62 0-4.415 1.6-4.415 4.537v2.532H0v3.432h2.964v8.809H6.51v-8.809h2.956l.443-3.432h-3.4V4.91c0-.994.277-1.67 1.702-1.67l1.818-.002V.168A24.24 24.24 0 007.379.033m0 .38c.937 0 1.783.053 2.269.097v2.348L8.21 2.86C6.365 2.86 6.13 3.955 6.13 4.91v2.572h3.347l-.345 2.672H6.13V18.963H3.344V10.154H.38V7.482h2.964V4.57C3.344 1.967 4.852.413 7.38.413" fill="#000" mask="url(#f)"/></g></g></svg>