<svg width="20" height="19" xmlns="http://www.w3.org/2000/svg" xmlns:xlink="http://www.w3.org/1999/xlink"><defs><path id="a" d="M0 .124h17.84v18.297H0z"/></defs><g fill="none" fill-rule="evenodd"><path d="M10.228 19c-3.495 0-6.64-1.9-8.21-4.957a8.884 8.884 0 010-8.082C3.586 2.9 6.733 1 10.228 1L10.335 1c2.189 0 4.275.784 5.897 2.213l-2.414 2.364a5.317 5.317 0 00-3.51-1.307h-.083A5.753 5.753 0 004.79 8.188a5.601 5.601 0 000 3.63l.042.124h.005c.835 2.272 2.987 3.789 5.395 3.789 1.26 0 2.398-.313 3.29-.907l.08-.054v-.002a4.447 4.447 0 001.871-2.854l.04-.214h-5.1V8.527h8.5c.088.542.132 1.107.132 1.684 0 2.68-.97 5.03-2.731 6.62l-.15.133C14.613 18.297 12.565 19 10.229 19" fill="#000"/><path d="M10.331 1h-.104C6.755 1 3.581 2.919 2.022 5.96a8.85 8.85 0 000 8.083C3.581 17.083 6.755 19 10.227 19c2.476 0 4.565-.797 6.086-2.172l-.002-.002c1.737-1.567 2.734-3.882 2.734-6.619 0-.612-.05-1.227-.158-1.829h-8.66v3.466h4.96a4.16 4.16 0 01-1.836 2.735v.002c-.823.547-1.884.857-3.12.857-2.396 0-4.427-1.583-5.156-3.713h-.003a5.29 5.29 0 010-3.446c.725-2.133 2.76-3.717 5.155-3.717h.078c1.28 0 2.515.48 3.444 1.35l2.621-2.57A8.922 8.922 0 0010.331 1m0 0v.356c2.036 0 3.978.707 5.512 2l-2.108 2.066a5.394 5.394 0 00-3.508-1.216 5.818 5.818 0 00-5.5 3.96 5.669 5.669 0 000 3.673l.088.242h.005a5.823 5.823 0 005.41 3.714c1.272 0 2.421-.318 3.325-.92l.159-.108v-.002a4.535 4.535 0 001.83-2.858l.077-.42H10.59V8.735h7.987c.07.477.105.97.105 1.473 0 2.576-.929 4.834-2.617 6.357l-.114.104c-1.49 1.293-3.466 1.976-5.724 1.976-3.355 0-6.374-1.824-7.88-4.76a8.537 8.537 0 010-7.763c1.505-2.939 4.525-4.764 7.884-4.764l.1-.001V1" fill="#000"/><path d="M9.228 18c-3.495 0-6.64-1.9-8.21-4.957a8.882 8.882 0 010-8.082C2.586 1.9 5.732 0 9.228 0L9.335 0c2.19 0 4.276.784 5.897 2.213l-2.414 2.364a5.318 5.318 0 00-3.51-1.307h-.083A5.753 5.753 0 003.79 7.188a5.6 5.6 0 000 3.63l.042.124h.005c.835 2.272 2.987 3.789 5.395 3.789 1.26 0 2.398-.313 3.29-.907l.08-.054v-.002a4.448 4.448 0 001.871-2.854l.04-.214h-5.1V7.527h8.5c.087.542.132 1.108.132 1.684 0 2.68-.97 5.03-2.732 6.62l-.148.133C13.612 17.297 11.565 18 9.228 18" fill="#EBF2FF"/><g transform="translate(.045)"><mask id="b" fill="#EBF2FF"><use xlink:href="#a"/></mask><path d="M9.204.124H9.1A9.094 9.094 0 00.968 5.168a9.2 9.2 0 000 8.216A9.097 9.097 0 009.1 18.42c2.455 0 4.525-.81 6.032-2.208l-.001-.002c1.72-1.593 2.71-3.945 2.71-6.728 0-.622-.05-1.247-.157-1.859H9.1v3.523h4.916a4.235 4.235 0 01-1.82 2.78v.002c-.815.557-1.867.872-3.093.872-2.374 0-4.387-1.61-5.109-3.775h-.003a5.506 5.506 0 010-3.503C4.71 5.355 6.726 3.745 9.1 3.745h.076a4.93 4.93 0 013.414 1.372l2.598-2.612A8.721 8.721 0 009.204.124m0 .362c2.017 0 3.943.72 5.462 2.033l-2.089 2.1A5.265 5.265 0 009.1 3.383c-2.462 0-4.652 1.618-5.45 4.025a5.902 5.902 0 000 3.734l.086.246h.005c.866 2.269 2.99 3.775 5.362 3.775 1.26 0 2.4-.323 3.296-.934l.157-.11v-.003a4.623 4.623 0 001.814-2.905l.076-.426H9.46V7.986h7.917c.069.485.104.987.104 1.497 0 2.619-.921 4.914-2.594 6.462l-.113.106c-1.478 1.315-3.436 2.008-5.674 2.008a8.691 8.691 0 01-7.81-4.839 8.877 8.877 0 010-7.89A8.691 8.691 0 019.204.485" fill="#000" mask="url(#b)"/></g></g></svg>