<svg width="22" height="21" xmlns="http://www.w3.org/2000/svg" xmlns:xlink="http://www.w3.org/1999/xlink"><defs><path id="a" d="M0 0h21.23v20.463H0z"/></defs><g fill="none" fill-rule="evenodd"><mask id="b" fill="#fff"><use xlink:href="#a"/></mask><path d="M2.399 12.596c-.44-.814-.626-1.83-.523-2.862.173-1.74 1.225-3.584 2.9-3.744.923-.088 1.344-.1 3.831-.14v8.65c-1.277.022-3.684.05-3.815.011-1.063-.321-1.89-.983-2.393-1.915zM9.09 14.52V5.868c.047-.003.128-.001.234 0 .879.016 3.557.059 6.215-1.742.986-.678 1.614-1.344 1.921-1.712v15.562c-.308-.368-.935-1.034-1.921-1.712-1.682-1.14-3.678-1.744-5.774-1.744H9.09zM20.8 8.425v3.5a.781.781 0 01-.426.678l-.944.462v-5.78l.944.462a.74.74 0 01.426.678zm.428-.013l-.002-.024a48.72 48.72 0 01-.05-.3 1.203 1.203 0 00-.62-.725L19.43 6.79 19.41.985A.986.986 0 0018.425 0c-.428 0-.8.264-.924.658-.015.045-.027.228-.021 1.04-.558.765-1.315 1.48-2.189 2.066A9.921 9.921 0 019.764 5.42l-4.8.1c-.906.016-1.687.376-2.32 1.07a4.35 4.35 0 00-.795 1.27h-.424C.639 7.86 0 8.5 0 9.285v1.8c0 .786.64 1.425 1.425 1.425h.441c.386 1.32 2 2.446 3.534 2.463l1.085-.001v4.195c0 .715.58 1.296 1.295 1.296h.362c.714 0 1.295-.581 1.295-1.296V14.97h.288c2.04 0 3.95.572 5.526 1.656 1.456.985 2.132 1.98 2.189 2.066v.673c0 .534.451.985.985.985a.986.986 0 00.985-.985v-5.784l1.146-.574a1.19 1.19 0 00.674-1.062v-3.5l-.002-.033z" fill="#000" mask="url(#b)"/></g></svg>