<svg width="18" height="22" xmlns="http://www.w3.org/2000/svg" xmlns:xlink="http://www.w3.org/1999/xlink"><defs><path id="a" d="M0 .114h17.616V21.2H0z"/></defs><g fill="none" fill-rule="evenodd"><g transform="translate(0 .086)"><mask id="b" fill="#fff"><use xlink:href="#a"/></mask><path d="M4.359 20.604l10.507.194c.157-.106.682-.5.815-1.084.086-.375-.005-.768-.27-1.17l-.197-.299.358-.01c.004 0 .458-.021.747-.338.183-.203.266-.489.245-.851 0-.02-.002-.826-.146-1.361l-.036-.133.111-.08c.02-.016.523-.407.523-1.34l.003-.031c.001-.01.146-.977-.366-1.318l-.276-.184.291-.158c.003-.002.61-.377.542-1.807-.005-.078-.145-1.978-1.864-2.048L9.269 8.32c.05.317.122.662.224 1.038 1.14 4.192-2.41 5.7-2.446 5.715a.2.2 0 01-.152-.37c.134-.055 3.258-1.395 2.212-5.24-.601-2.212-.24-3.372.078-4.395.127-.407.246-.79.29-1.208.006-.038.423-2.606-1.216-3.158-.704-.237-1.223-.25-1.501-.04-.217.164-.315.48-.292.937.006.123.021.264.038.42.091.855.23 2.147-.705 3.392-.206.275-.415.54-.622.803-.846 1.072-1.645 2.085-1.988 3.454-.05.2-.068.416-.086.625-.04.453-.08.921-.452 1.215-.327.258-.852.33-1.647.228-.113.212-.361.76-.5 1.698-.167 1.128-.204 3.058.549 5.888h.875l2.43 1.282zm10.617.596h-.057l-10.663-.198-2.427-1.28H.747l-.04-.147c-1.574-5.77-.038-8.074.028-8.17l.071-.101.123.018c.743.11 1.225.069 1.474-.127.236-.187.266-.535.301-.937.02-.224.04-.456.097-.687.364-1.452 1.19-2.498 2.062-3.605.205-.26.412-.523.616-.795.84-1.12.717-2.27.627-3.11a8.125 8.125 0 01-.04-.442c-.03-.598.122-1.027.45-1.275.395-.3 1.024-.306 1.87-.02 1.964.66 1.505 3.472 1.485 3.591-.046.443-.171.846-.304 1.271-.224.721-.47 1.513-.35 2.731l6.146.27c2.082.084 2.245 2.402 2.247 2.425.055 1.166-.3 1.748-.54 2.005.467.514.365 1.393.346 1.53-.004.872-.39 1.364-.582 1.554.128.574.13 1.3.13 1.333.027.465-.092.85-.353 1.135a1.468 1.468 0 01-.715.415c.208.41.267.82.175 1.222-.198.854-1.012 1.345-1.046 1.365l-.05.029z" fill="#000" mask="url(#b)"/></g><path d="M12.591 12.922c-1.279 0-1.858-.854-1.864-1.7-.004-.605.165-1.062.501-1.357.45-.394 1.036-.351 1.14-.34h2.437a.2.2 0 110 .4l-2.475-.002c-.005 0-.496-.06-.84.245-.244.215-.366.569-.363 1.05.005.63.392 1.304 1.464 1.304h.001c1.761 0 4.146-.02 4.17-.02h.002a.2.2 0 01.002.4c-.024 0-2.411.02-4.174.02z" fill="#000"/><path d="M12.035 15.977l-.016-.002a1.823 1.823 0 01-.348-.101c-.42-.164-1.13-.593-1.159-1.626-.033-1.187.968-1.687 1.501-1.786a.2.2 0 01.074.393c-.05.01-1.207.243-1.175 1.382.021.762.503 1.108.904 1.264.12.047.215.069.25.076l4.543-.059h.002a.2.2 0 01.003.4l-4.579.06z" fill="#000"/><path d="M15.579 18.72a.24.24 0 01-.02 0l-3.594-.364c-.373-.07-1.046-.445-1.046-1.384 0-.9.71-1.303 1.086-1.39a.2.2 0 01.09.39c-.033.008-.776.197-.776 1 0 .836.676.983.705.989l3.575.36a.2.2 0 01-.02.4" fill="#000"/><path d="M14.756 21.282a.194.194 0 01-.035-.003l-2.394-.428-.042-.036c-.014-.012-1.325-1.18-.476-2.753a.2.2 0 11.352.19c-.632 1.17.157 2.04.348 2.225l2.282.408a.2.2 0 01-.035.397" fill="#000"/></g></svg>