<svg width="22" height="11" xmlns="http://www.w3.org/2000/svg" xmlns:xlink="http://www.w3.org/1999/xlink"><defs><path id="a" d="M0 .092H21.15V10H0z"/><path id="c" d="M0 .092h21.149V10H0z"/></defs><g fill="none" fill-rule="evenodd"><g transform="translate(0 .108)"><mask id="b" fill="#fff"><use xlink:href="#a"/></mask><path d="M21.149 5.046l-.98.98c-5.3 5.299-13.89 5.299-19.19 0L0 5.046l.98-.98c5.299-5.299 13.89-5.299 19.189 0l.98.98z" fill="none" mask="url(#b)"/></g><g transform="translate(0 .108)"><mask id="d" fill="#fff"><use xlink:href="#c"/></mask><path d="M10.574.092A13.527 13.527 0 00.98 4.066l-.98.98.98.98A13.527 13.527 0 0010.574 10c3.473 0 6.946-1.325 9.595-3.974l.98-.98-.98-.98A13.527 13.527 0 0010.574.092m0 .36c3.529 0 6.846 1.374 9.34 3.869l.726.725-.726.725a13.123 13.123 0 01-9.34 3.869 13.122 13.122 0 01-9.34-3.869L.51 5.046l.725-.725a13.12 13.12 0 019.34-3.869" fill="#000" mask="url(#d)"/></g><path d="M4.722 5.19a3.566 3.566 0 117.133-.001 3.566 3.566 0 01-7.133 0" fill="#000"/></g></svg>