<svg width="99" height="99" xmlns="http://www.w3.org/2000/svg"><g stroke="#000" stroke-width="2" fill="none" fill-rule="evenodd" stroke-linecap="round" stroke-linejoin="round"><path d="M43.17 23.964l-9.9 23.894L46.366 16.25a4.307 4.307 0 015.634-2.32c2.206.913 3.254 3.43 2.341 5.627L41.25 51.16l10.857-26.213c.894-2.158 3.312-3.423 5.515-2.646a4.314 4.314 0 012.566 5.714L47.575 58.448l8.282-19.99c.908-2.196 3.44-3.234 5.64-2.32a4.305 4.305 0 012.345 5.627l-15.969 38.56-.002-.006c-1.457 3.531-4.22 6.125-7.51 7.48a15.494 15.494 0 00-8.418 8.396c-9.35 3.88-20.066-.56-23.937-9.913L8 86.284l4.18-10.094c-3.624-4.728-4.715-11.177-2.28-17.056l4.784-24.052c.305-1.534 2.05-2.385 3.382-1.564 2.982 1.838 4.666 5.395 3.944 9.019l.002.001-2.26 11.356 1.425.589 14.008-33.827a4.308 4.308 0 015.64-2.318 4.311 4.311 0 012.345 5.626zM62.431 18.366l9.896 23.895-9.896-23.895z"/><path d="M93.42 70.586c3.625-4.725 4.719-11.175 2.275-17.053l-4.779-24.04c-.321-1.618-2.175-2.364-3.558-1.464-2.871 1.869-4.475 5.356-3.768 8.906v.004l2.259 11.355-1.426.59-14.009-33.827a4.299 4.299 0 00-5.635-2.317 4.298 4.298 0 00-2.346 5.626l-3.107-7.497c-.878-2.12-3.234-3.374-5.413-2.654a4.297 4.297 0 00-2.732 5.467c.274.057.552.137.82.247 2.206.915 3.255 3.432 2.342 5.628l-2.13 5.142a4.314 4.314 0 015.636-2.31 4.31 4.31 0 012.341 5.625l-4.317 10.42a4.312 4.312 0 015.626-2.3 4.308 4.308 0 012.345 5.63l-9.88 23.861 3.765 9.096v-.006c1.46 3.538 4.225 6.13 7.514 7.485a15.485 15.485 0 018.415 8.397c9.353 3.875 20.069-.566 23.94-9.919l.002.003-4.18-10.095zM20.8 1.6l12.802 12.8L20.8 1.6zM4.8 23.998h18.102H4.8zM40 4.798V12.8 4.798zM1.6 8l25.6 10.6L1.6 8z"/></g></svg>