<svg width="123" height="36" xmlns="http://www.w3.org/2000/svg"><path d="M61.276 12.484v8.484a3.555 3.555 0 003.548 3.552 3.555 3.555 0 003.549-3.552v-8.484h4.718v8.484c0 4.564-3.708 8.276-8.267 8.276-4.559 0-8.267-3.712-8.267-8.276v-8.484h4.719zm52.912-.836c4.846 0 8.788 3.946 8.788 8.798 0 4.85-3.942 8.798-8.788 8.798-4.845 0-8.788-3.947-8.788-8.798 0-4.852 3.943-8.798 8.788-8.798zm-60.16-4.15v13.46c0 4.564-3.71 8.276-8.268 8.276-4.56 0-8.267-3.712-8.267-8.276v-.956h4.718v.956a3.555 3.555 0 003.549 3.552 3.555 3.555 0 003.548-3.552V7.498h4.72zm29.876 4.271c4.56 0 8.268 3.713 8.268 8.277v8.483h-4.719v-8.483a3.554 3.554 0 00-3.549-3.553 3.554 3.554 0 00-3.548 3.553v8.483h-4.719v-8.483c0-4.564 3.708-8.277 8.267-8.277zM99.432 7.5v4.599h4.76v4.724h-4.76V28.52h-4.72V7.499h4.72zm14.756 8.873a4.076 4.076 0 00-4.07 4.074 4.076 4.076 0 004.07 4.074 4.076 4.076 0 004.069-4.074 4.076 4.076 0 00-4.069-4.074zm-85.694-3.982v12.936c0 5.426-4.843 10.666-14.93 10.666-4.405 0-11.062-2.191-13.564-5.628v-14.5c2.502 3.437 7.636 5.628 13.563 5.628 6.81 0 14.931-3.676 14.931-9.102zM4.156 0s8.948 5.686 12.693 8.096c3.44 2.215.696 5.321-3.636 5.167-2.19-.077-4.23-1.736-4.492-1.957l-.029-.025-4.536 2.29z" fill-rule="evenodd"/></svg>