<svg width="245" height="311" xmlns="http://www.w3.org/2000/svg" xmlns:xlink="http://www.w3.org/1999/xlink"><defs><path d="M.234 117.496L39.03 97.799s18.59 16.333 38.646 17.052c37.038 1.323 60.517-25.398 31.088-44.451C76.754 49.665.234.754.234.754v116.742z" id="a"/><path d="M116.474 78.446C65.8 78.446 21.905 59.596.51 30.033v124.73c21.396 29.562 78.312 48.412 115.965 48.412 86.258 0 127.676-45.072 127.676-91.744V.146c0 46.667-69.45 78.3-127.676 78.3z" id="c"/></defs><g fill="none" fill-rule="evenodd"><path d="M36.04.758v116.737l38.79-19.691s18.589 16.332 38.65 17.046c37.04 1.328 60.512-25.398 31.089-44.451C112.547 49.669 36.039.758 36.039.758" fill="#000"/><g transform="translate(35.8 .002)"><mask id="b" fill="#fff"><use xlink:href="#a"/></mask><path fill="#000" mask="url(#b)" d="M-3049 7390H9132.728V-223.585H-3049z"/></g><path d="M.508 261.965c21.397 29.563 78.312 48.413 115.971 48.413 86.252 0 127.664-45.078 127.664-91.75v-111.28c0 46.673-69.443 78.3-127.664 78.3-50.68 0-94.574-18.85-115.97-48.412v124.729z" fill="#000"/><g transform="translate(0 107.202)"><mask id="d" fill="#fff"><use xlink:href="#c"/></mask><path fill="#000" mask="url(#d)" d="M-3013.2 7282.8H9168.528V-330.785H-3013.2z"/></g></g></svg>