<svg width="223" height="262" xmlns="http://www.w3.org/2000/svg"><g fill="none" fill-rule="evenodd"><circle fill="#B0CBFC" cx="179.5" cy="28" r="19"/><path fill="#B0CBFC" d="M148 113l36.5 20.034V260.5L148 239.402zM0 197l36.5 20.103V260.5L0 239.33zM75 155l36.5 20.037V260.5L75 239.399z"/><path fill="#000" d="M179.702 0l-4.794 4.795.718.718 3.297-3.297.238-.24V54.31h1.015V1.909l.239.24 3.07 3.069.717-.718z"/><path fill="#FFF" d="M148.153 112.15l37.038 21.152 37.038-21.153-37.085-21.753z"/><path d="M148.153 112.15v128.1l37.038 21.682 37.038-21.682v-128.1l-37.085-21.754-36.991 21.753zm2.086.3l34.905-20.537 34.472 20.221-34.95 19.978-34.427-19.663zm-.778 42.48v-41.286l34.421 19.659v41.776l-34.421-20.149zm0 42.649v-41.337l34.421 20.469v41.017l-34.421-20.149zm0 41.922V199.044l34.421 20.388v40.217l-34.421-20.148z" fill="#000"/><path fill="#FFF" d="M74.076 154.802l36.99-21.754 37.087 21.754-37.04 21.153z"/><path d="M74.076 154.802V240.25l37.038 21.682 37.04-21.682V154.802l-37.087-21.754-36.991 21.754zm2.115.294l34.876-20.529 34.472 20.22-34.92 19.97-34.428-19.66zm-.807 42.487V156.34l34.422 19.615v41.778l-34.422-20.15zm0 41.917v-40.482l34.422 20.414v40.218L75.384 239.5z" fill="#000"/><path fill="#FFF" d="M0 197.341l37.038 21.153 37.038-21.153-37.085-21.753z"/><path d="M0 197.341v42.732l37.038 21.681 37.038-21.68V197.34L36.99 175.588 0 197.34zm2.088.3l34.903-20.535 34.472 20.22-34.948 19.977L2.088 197.64zm-.78 41.782v-40.588l34.421 19.659v41.077l-34.42-20.148z" fill="#000"/><path d="M193.788 109.023c0-3.63 1.387-7.263 4.152-10.032a12.595 12.595 0 003.71-8.944V74.233a3.163 3.163 0 00-3.165-3.163 3.162 3.162 0 00-3.163 3.163v3.16l.002 3.384V71.07a3.162 3.162 0 00-3.161-3.162 3.162 3.162 0 00-3.166 3.162v6.327-6.327a3.162 3.162 0 10-6.323 0v6.327-20.104a3.164 3.164 0 00-6.328 0l.001 20.103v-.003a6.325 6.325 0 00-6.327 6.325v6.328c0 4.68 2.548 8.755 6.326 10.943v8.034" fill="#FFF"/><path d="M193.788 109.023c0-3.63 1.387-7.263 4.152-10.032a12.595 12.595 0 003.71-8.944V74.233a3.163 3.163 0 00-3.165-3.163 3.162 3.162 0 00-3.163 3.163v3.16l.002 3.384V71.07a3.162 3.162 0 00-3.161-3.162 3.162 3.162 0 00-3.166 3.162v6.327-6.327a3.162 3.162 0 10-6.323 0v6.327-20.104a3.164 3.164 0 00-6.328 0l.001 20.103v-.003a6.325 6.325 0 00-6.327 6.325v6.328c0 4.68 2.548 8.755 6.326 10.943v8.034" stroke="#000" stroke-width="1.215" stroke-linecap="round" stroke-linejoin="round"/><path d="M182.67 102.696" fill="#FFF"/><path d="M182.67 102.696a12.541 12.541 0 010 0z" stroke="#000" stroke-width="1.215" stroke-linecap="round" stroke-linejoin="round"/><path d="M188.998 88.956" fill="#FFF"/><path d="M188.998 88.956a17.856 17.856 0 000 0z" stroke="#000" stroke-width="1.215" stroke-linecap="round" stroke-linejoin="round"/><path d="M176.348 83.72h12.65a3.165 3.165 0 100-6.328h-12.65 12.65a3.165 3.165 0 110 6.329h-12.65z" fill="#FFF"/><path d="M176.348 83.72h12.65a3.165 3.165 0 100-6.328h-12.65 12.65a3.165 3.165 0 110 6.329h-12.65z" stroke="#000" stroke-width="1.215" stroke-linecap="round" stroke-linejoin="round"/><path d="M176.332 109.009c0 2.103 3.903 3.808 8.717 3.808 4.816 0 8.718-1.705 8.718-3.808" fill="#FFF"/><path d="M176.332 109.009c0 2.103 3.903 3.808 8.717 3.808 4.816 0 8.718-1.705 8.718-3.808" stroke="#000" stroke-width="1.215" stroke-linecap="round"/><path d="M184.93 46.062l-.179.053-.704.208.003-.001.649-.651c.874-.875 1.675-1.975 2.388-3.26.432-.78.828-1.63 1.189-2.54.275-.692.53-1.414.76-2.175l.038-.122.124-.035c1.938-.54 3.72-1.311 5.249-2.241 1.036-.63 1.957-1.333 2.721-2.096l.647-.646-.257.877c-.143.49-.314.967-.498 1.44-1.385 3.568-3.872 6.637-7.034 8.77a18.582 18.582 0 01-5.095 2.419zm-4.695.692v-8.017l.225-.008c1.952-.062 3.66-.22 5.262-.488l.05-.01a30.121 30.121 0 001.52-.295l.05-.011.35-.079-.128.39c-.542 1.656-1.211 3.111-1.97 4.336-1.448 2.336-3.222 3.815-5.086 4.134l-.172.03-.101.018zm-1.131-29.147l-.227.007c-2.5.082-4.598.323-6.586.746-.08.02-.164.031-.245.05l-.403.089.131-.392c.65-1.95 1.481-3.628 2.43-4.974 1.355-1.922 2.951-3.161 4.62-3.495l.28-.056v8.025zm0 10h-8.869l.008-.24c.011-.379.04-.747.06-1.119.09-1.58.26-3.118.529-4.587.111-.602.236-1.196.377-1.777l.032-.138.002-.001.139-.034c.47-.113.954-.21 1.44-.304.113-.022.223-.05.337-.071.095-.017.194-.029.29-.046 1.726-.3 3.536-.486 5.414-.544l.24-.008v8.868zm0 9.998l-.241-.007a39.578 39.578 0 01-2.83-.196c-.428-.044-.856-.087-1.275-.145a34.129 34.129 0 01-3.376-.624l-.139-.034-.014-.059-.02-.079a31.316 31.316 0 01-.658-3.556 39.432 39.432 0 01-.232-2.517c-.03-.468-.062-.934-.076-1.41l-.008-.24h8.869v8.867zm0 9.149l-.092-.015-.182-.033c-.888-.152-1.755-.566-2.578-1.209-1.809-1.417-3.394-3.949-4.479-7.26l-.043-.131-.085-.259v-.001l.401.09c.292.064.57.112.856.168 2.091.417 4.016.625 5.968.625h.234v8.025zm-4.617-.692a18.705 18.705 0 01-5.19-2.438l-.086-.055c-.219-.148-.427-.307-.64-.465-.097-.072-.198-.14-.293-.214a18.569 18.569 0 01-6.419-9.457l-.053-.185-.217-.735.002.001.506.53.156.162c1.23 1.287 3.027 2.426 5.265 3.363.842.353 1.743.68 2.707.971l.082.026.04.012.034.123c.65 2.324 1.626 4.427 2.817 6.131.476.679.982 1.3 1.52 1.839l.323.323.325.325-.428-.125-.45-.132zm-13.409-17.324h8.026l.008.226c.07 2.186.268 4.06.599 5.829.062.335.122.673.194 1.002l.09.403-.392-.13c-4.735-1.58-7.901-4.215-8.468-7.05l-.01-.054-.047-.226zm.056-1.405c.487-2.84 3.653-5.479 8.47-7.056l.39-.128-.06.276-.029.125a33.003 33.003 0 00-.744 5.178c-.032.556-.05 1.105-.05 1.645v.234h-8.024l.034-.203.013-.07zm.645-4.342c1.76-5.996 6.598-10.835 12.628-12.628l.143-.042.74-.221h-.002.002l-.651.652c-.031.031-.061.069-.092.1-1.765 1.808-3.233 4.524-4.246 7.876l-.037.123-.124.035c-3.07.856-5.753 2.28-7.634 4.026-.111.104-.23.203-.337.309l-.647.648v-.001l.257-.877zm18.456 14.374v-8.627h8.868l-.005.152-.003.089c-.08 2.64-.405 5.157-.966 7.48l-.033.14-.03.007-.11.027c-1.344.325-2.63.566-3.871.725-1.244.16-2.444.24-3.616.24h-.234v-.233zm0-9.991v-8.635l.24.007c2.642.08 5.159.405 7.481.965l.14.035.033.138c.56 2.323.885 4.841.966 7.482l.003.09.005.15v.001h-8.868v-.233zm0-9.992V9.59l.25.043.022.004c.035.007.07.018.105.024 1.914.373 3.732 1.957 5.19 4.446.672 1.152 1.27 2.495 1.762 4.001l.128.39-.35-.078-.05-.01c-2.06-.458-4.23-.711-6.832-.796l-.225-.006v-.226zm3.812-7.282l.885.263c3.39 1.008 6.405 2.98 8.707 5.58a18.538 18.538 0 013.92 7.048l.17.585.086.293-.162-.162-.485-.485c-.904-.903-2.045-1.73-3.386-2.46-1.342-.73-2.884-1.363-4.588-1.878l-.124-.037-.034-.124c-.695-2.486-1.76-4.723-3.068-6.485a13.286 13.286 0 00-1.27-1.486l-.488-.488-.163-.164h.001zm14.212 17.506v.001h-8.026l-.007-.226a48.785 48.785 0 00-.094-1.831c-.126-1.82-.354-3.443-.7-5l-.09-.404.098.033.294.098c4.046 1.348 6.94 3.47 8.052 5.827.19.402.334.81.416 1.223l.057.28zm-.056 1.405c-.486 2.84-3.653 5.479-8.47 7.057l-.118.04-.275.089v-.001l.092-.403c.527-2.281.794-4.575.794-6.822v-.233h8.023l-.046.273zm1.215-.839c0-10.89-8.86-19.75-19.75-19.75-10.889 0-19.749 8.86-19.749 19.75s8.86 19.75 19.75 19.75 19.749-8.86 19.749-19.75z" fill="#000"/></g></svg>