<svg width="201" height="222" xmlns="http://www.w3.org/2000/svg"><g fill="none" fill-rule="evenodd"><path fill="#FFF" d="M67.794 47.422l-.631 39.132-33.154 19.711-.345 38.902L0 163.397l.51 38.773 32.697 18.732 33.787-19.22 33.348 19.218 33.193-19.366 33.77 19.364 32.943-18.72-.001-38.341-33.73-19.573.286-38.98-33.558-19.133-.002-38.845-32.86-18.903z"/><path d="M167.088 145.03l33.158 18.81v38.341h-1.309l-32.246-18.751.397-38.4zm-133.08-38.767l32.885 18.498v76.92l-33.378-19.418.494-76zm66.775 38.767l32.625 18.758v37.747l-32.625-18.932V145.03zm32.463-58.878l33.558 19.134-.288 38.98-1.575-.75-31.695-18.755v-38.61zm-33.123-57.474l33.123 18.63-.596 38.843-32.527-19.017V28.678z" fill="#B0CBFC"/><path d="M100.355 27.864L66.887 46.98v39.092l-33.473 19.543.029 38.681L0 163.396v39.093l33.472 19.172 33.466-19.174h.003l33.47 19.174 33.424-19.177 33.47 19.133 33.468-19.116V163.39l-33.47-19.113-.023-39.316L133.83 86.07l-.001-39.093-33.47-19.113h-.005zm.452 39.046l.018-37.454 31.823 18.208v37.753L100.808 66.91zm-65.784 39.159l65.317-38.064 31.134 18.065-65.294 37.87-31.157-17.871zm98.988 18.692V87.548l32.086 18.104.022 37.863-32.108-18.754zm-99.358 57.456l-.054-74.56 31.53 18.147.002 74.893-31.478-18.48zm67.223-37.447l31.914-18.778 31.151 18.271-31.954 18.273-31.111-17.766zm65.427 38.304v-37.337l32.286 18.34.003 37.78-32.289-18.783zm-65.756-.86l-.001-35.897 31.104 17.762.001 36.344-31.104-18.208zM1.784 201.95l32.263-18.878 31.687 18.736-32.262 18.49L1.784 201.95zm66.45-.086l32.64-18.433 31.575 18.481-32.039 18.385-32.176-18.433zm67.963.61l30.834-18.37 31.38 18.385-31.106 17.767-31.108-17.783z" fill="#000"/><path d="M113.856 12.052a1.017 1.017 0 00-1.373-.956l-2.034.753V8.676a1.017 1.017 0 00-1.373-.956l-1.871.712v-3.05a1.016 1.016 0 00-1.373-.957l-3.255 1.302V2.93a1.018 1.018 0 00-1.373-.957L53.316 28.076c-.4.15-.663.53-.662.956v73.914a1.025 1.025 0 000 .305 13.893 13.893 0 0010.73 9.448l1.413.264h.193c.118 0 .236-.02.345-.06l47.86-27.031c.398-.15.661-.53.66-.956V12.052z" fill="#FFF"/><path d="M112.722 12.525l-.01 72.377v.15l-.13.072-46.903 26.22-.377.21V38.265l.13-.072 46.914-25.89.376-.207v.43zm-48.176 24.31l-.081.045-.09-.017-1.042-.199a12.356 12.356 0 01-2.83-.914l-.455-.21.44-.242 48.433-26.492.375-.206v3.106l-.129.072-44.621 25.056zm-.808 1.715l-.01 73.493v.255h-.486l-.024-.005a12.394 12.394 0 01-9.48-8.3l-.013-.04V31.783l.46.657a14.021 14.021 0 003.437 3.436.962.962 0 00.182.13 13.942 13.942 0 005.25 2.202l.478.095.206.04v.208zm-9.497-9.884l46.59-25.753.376-.208v2.733l-.13.073-45.653 25.44-.215.122-.127-.212c-.197-.334-.402-.68-.575-1.068l-.373-.798-.1-.214.207-.115zM105.6 5.473l.375-.204V8.21l-.132.072-47.35 26.096-.145.08-.132-.1a12.496 12.496 0 01-1.827-1.722l-.207-.239.277-.15L105.6 5.474zm8.727 80.096V10.974a.782.782 0 00-1.063-.74l-2.083.77-.341.126V7.517a.784.784 0 00-.785-.79.786.786 0 00-.278.05l-1.914.728-.344.13v-3.49a.788.788 0 00-1.064-.742l-3.326 1.33-.348.14V1.634a.784.784 0 00-.785-.79h-.002a.782.782 0 00-.276.049L52.725 27.601c-.34.13-.545.428-.544.756v75.67a.94.94 0 00-.003.275 13.937 13.937 0 0010.78 9.46l1.424.266h.174a.777.777 0 00.249-.04l48.976-27.662c.343-.132.549-.428.547-.757z" fill="#000"/><path d="M106.545 25.4v-.25l-.016.25a.778.778 0 00-.276.056L71.309 44.395c-.339.13-.544.426-.544.755v51.08a.785.785 0 00.347.644.788.788 0 00.726.087l34.95-19.03c.34-.13.546-.428.545-.756V26.168a.791.791 0 00-.788-.768" stroke="#000" stroke-width="1.69"/><path d="M101.336 39.87a.776.776 0 00.018-.602.79.79 0 00-1.016-.457L78.082 51.14a.819.819 0 00-.472.43.79.79 0 00.999 1.06l22.255-12.33a.816.816 0 00.472-.428M79.793 62.208a.79.79 0 00.279-.051l20.788-12.162a.821.821 0 00.476-.432.78.78 0 00.018-.602.792.792 0 00-1.016-.457L79.55 60.666c-.444.172-.65.628-.495 1.034a.79.79 0 00.737.508" fill="#000"/><path d="M63.738 38.55l-.011 73.493v.254h-.485l-.023-.005a12.393 12.393 0 01-9.481-8.3l-.014-.039V31.781l.462.658a14.021 14.021 0 003.436 3.436.936.936 0 00.183.13 13.948 13.948 0 005.248 2.203l.48.093.205.04v.209z" fill="#B0CBFC"/></g></svg>