<svg width="24" height="20" xmlns="http://www.w3.org/2000/svg"><path d="M24 2.557a9.913 9.913 0 01-2.828.775A4.93 4.93 0 0023.338.607a9.738 9.738 0 01-3.13 1.194 4.92 4.92 0 00-3.593-1.55A4.924 4.924 0 0011.821 6.3c-4.09-.21-7.72-2.17-10.15-5.15a4.942 4.942 0 00-.665 2.477c0 1.71.87 3.214 2.19 4.1a4.968 4.968 0 01-2.23-.616v.06c0 2.39 1.7 4.38 3.952 4.83-.414.115-.85.174-1.297.174-.318 0-.626-.03-.928-.086a4.935 4.935 0 004.6 3.42 9.893 9.893 0 01-6.114 2.107c-.398 0-.79-.023-1.175-.068a13.953 13.953 0 007.55 2.213c9.056 0 14.01-7.507 14.01-14.013 0-.213-.005-.426-.015-.637.96-.695 1.795-1.56 2.455-2.55L24 2.557z" fill="#000" fill-rule="nonzero"/></svg>