<svg width="164" height="251" xmlns="http://www.w3.org/2000/svg" xmlns:xlink="http://www.w3.org/1999/xlink"><defs><path id="a" d="M.808.404h.404v.404H.808z"/><path id="c" d="M.808.006h.408v.807H.808z"/><path id="e" d="M.792.178h.437v.808H.792z"/><path id="g" d="M.065.394h.808v.414H.065z"/><path id="i" d="M.808.404h.404v.404H.808z"/><path id="k" d="M.459.649h36.09v58.07H.46z"/></defs><g fill="none" fill-rule="evenodd"><path fill="#FFF" d="M81.683 46.032l-.319 31.28-26.936 15.57v31.056l-27.076 16.43v31.81L.417 186.75l.524 31.05 53.93 31.01 108.079-62.415V62.673l-53.84-31.248z"/><path fill="#000" d="M83.447 172.393l8.993-5.185zM137.135 110.073l-26.844 15.497zM110.426 156.84l-.09-20.846.09 20.846zM137.18 97.576v-.012.012"/><g transform="translate(-1 249.736)"><mask id="b" fill="#fff"><use xlink:href="#a"/></mask></g><path d="M83.447 201.996" fill="#000"/><g transform="translate(-1 186.728)"><mask id="d" fill="#fff"><use xlink:href="#c"/></mask><path d="M.816.41H.807h.01z" fill="#000" mask="url(#d)"/></g><path d="M83.277 203.495" fill="#000"/><g transform="translate(162.962 186.736)"><mask id="f" fill="#fff"><use xlink:href="#e"/></mask><path d="M1.228.523" fill="#000" mask="url(#f)"/></g><g transform="translate(53.923 249.736)"><mask id="h" fill="#fff"><use xlink:href="#g"/></mask><path d="M.452.787l.034.02-.034-.02z" fill="#000" mask="url(#h)"/></g><g transform="translate(-1 249.736)"><mask id="j" fill="#fff"><use xlink:href="#i"/></mask></g><path fill="#000" d="M161.436 186.116l-35.93 20.859zM161.84 64.952V186.35l-.201.116-51.004 29.61-2.845 1.447-51.125 29.66-.607.351v-28.669l.203-.116 26.42-15.216c.23-.154.468-.313.364-1.5l-.002-29.64v-.233l.202-.116 26.777-15.436-.134-31.034-.001-.234.202-.118 26.642-15.382c.003-6.308.14-30.726.142-30.975v-.232l.201-.116 24.16-13.914.606-.348v.698zM55.143 216.886l-.202.116-.201-.117-51.037-29.466-.605-.35.605-.35 24.16-13.986.201-.117.202.116 51.114 29.51.607.351-.608.35-24.236 13.943zm-1.103 2.05V247.5l-.611-.366L2.426 216.57l-.197-.119v-27.589l.606.35 51.003 29.373.202.116v.235zm-24.967-48.354V142.238l.606.35 51.144 29.455.202.116v28.577l-.605-.348-51.144-29.455-.203-.117v-.234zm1.617-30.628l24.301-13.846.2-.114.202.115 51.002 29.387.606.349-.605.35-24.16 13.987-.202.118-.202-.118-51.144-29.527-.61-.352.612-.35zm25.368-15.914V95.335l.606.35 51.023 29.385.203.116v28.832l-.605-.346-51.024-29.282-.203-.116v-.234zm1.473-30.847l24.16-13.987.202-.118.203.117 51.114 29.511.606.35-.607.35-24.237 13.943-.202.115-.201-.115L57.53 93.892l-.605-.35.605-.349zm25.372-16.138V48.713l.605.348 51.144 29.455.202.116v28.576l-.605-.348-51.145-29.455-.201-.117v-.233zm1.617-30.629l24.299-13.845.201-.115.201.116 51.004 29.387.605.349-.605.35-24.16 13.987-.201.118-.202-.117-51.145-29.529-.61-.352.613-.349zm78.81 15.098l-53.946-31.068a.895.895 0 00-.505-.158.865.865 0 00-.483.144L81.389 45.996c-.32.215-.495.518-.504.892v30.563l-.203.117L54.544 92.62a1.071 1.071 0 00-.496.876l-.008.19V124.273l-.202.117-26.279 15.135a1.067 1.067 0 00-.504.888l.001.002.003.048.008.412h-.012V170.98l-.202.116L.716 186.148c-.32.214-.498.521-.504.899.005.024.006.048.008.072l.02.422H.211v30.053l54.324 32.555.056.026c.23.115.434.21.599.21.265 0 .328 0 .525-.099l53.525-31.071a.946.946 0 00.227-.151l.03-.028.036-.022 53.534-31.396.11-.055c.22-.106.68-.328.68-.585V62.46c0-.387-.178-.702-.527-.936zM26.652 140.471h.003-.003z"/><path fill="#000" d="M107.606 217.163l-51.144 29.669 51.144-29.67 1.414-.719zM82.882 203.882l-13.21 7.608 13.21-7.608z"/><path d="M138.668 18.853c-.101 9.156-12.441 31.228-16.044 37.477-3.702-6.07-16.318-27.501-16.285-37.455.03-8.917 7.282-16.171 16.165-16.171a16.15 16.15 0 0111.56 4.824c3.017 3.051 4.652 7.072 4.604 11.325" fill="#FFF"/><g transform="translate(104 .16)"><mask id="l" fill="#fff"><use xlink:href="#k"/></mask><path d="M19.04 55.236l-.17.295-.238.414-.248-.407-.178-.291C14.48 49.135 2.322 28.438 2.356 18.698 2.385 9.791 9.63 2.545 18.503 2.545c4.372 0 8.472 1.711 11.546 4.819 3.015 3.049 4.65 7.069 4.602 11.32-.1 8.957-11.974 30.243-15.612 36.552M31.398 6.031A18.003 18.003 0 0018.504.648 17.894 17.894 0 005.756 5.935 18.018 18.018 0 00.459 18.69c-.016 5.137 2.916 13.375 8.717 24.483a229.613 229.613 0 008.683 15.11.944.944 0 00.797.435.945.945 0 00.814-.46c.693-1.154 16.954-28.368 17.078-39.555.053-4.76-1.776-9.26-5.15-12.673" fill="#000" mask="url(#l)"/></g><path d="M121.642 58.934c.015.014.024.033.039.047-.015-.014-.024-.033-.039-.047M131.144 17.31l-.275.282-3.547 3.636a.952.952 0 00-.259.815l.823 5.042.067.41.094.574-.51-.281-.364-.202-4.21-2.327a.945.945 0 00-.919 0l-4.21 2.327-.365.202-.51.281.095-.575.067-.41.823-5.042a.952.952 0 00-.258-.814l-3.548-3.636-.275-.281-.384-.394.544-.083.388-.06 4.838-.738a.948.948 0 00.716-.535l2.1-4.473.183-.39.257-.545.255.546.183.389 2.099 4.474a.947.947 0 00.714.534l4.84.739.389.059.543.083-.384.394zm3.249-1.354a.947.947 0 00-.756-.635l-6.839-1.045-.106-.017-.149-.023-.065-.136-.046-.097-3.071-6.543a.95.95 0 00-.856-.546.955.955 0 00-.86.546l-3.071 6.543-.046.097-.064.136-.149.023-.107.017-6.84 1.045a.944.944 0 00-.753.635.941.941 0 00.22.964l4.99 5.116.07.072.1.102-.022.14-.017.102-1.181 7.238a.952.952 0 00.935 1.103c.159 0 .318-.04.46-.12l6.1-3.372.097-.053.138-.076.136.076.098.053 6.099 3.372a.978.978 0 001.007-.056.95.95 0 00.387-.924l-1.181-7.241-.016-.101-.024-.14.1-.103.07-.072 4.99-5.115a.942.942 0 00.222-.965zM110.093 16.13c-.002.02-.011.041-.013.062.002-.02.01-.042.013-.063M114.289 30.014v-.009.009M161.84 64.952V186.35l-.201.116-51.004 29.61-2.845 1.447-51.125 29.66-.607.351v-28.669l.203-.116 26.42-15.216c.23-.154.468-.313.364-1.5l-.002-29.64v-.233l.202-.116 26.777-15.436-.134-31.034-.001-.234.202-.118 26.642-15.382c.003-6.308.14-30.726.142-30.975v-.232l.201-.116 24.16-13.914.606-.348v.698z" fill="#000"/><g style="mix-blend-mode:multiply" fill="#B0CBFC"><path d="M81.2 47.2l55.013 29.812v32.148L81.72 78.052zM54.44 94l55.013 29.812v32.148L54.96 124.852zM27.64 141.04l55.013 29.812V203L28.16 171.892zM1.4 187.84l55.013 29.812V249.8L1.92 218.692zM131.144 17.31l-.275.282-3.547 3.636a.952.952 0 00-.259.815l.823 5.042.067.41.094.574-.51-.281-.364-.202-4.21-2.327a.945.945 0 00-.919 0l-4.21 2.327-.365.202-.51.281.095-.575.067-.41.823-5.042a.952.952 0 00-.258-.814l-3.548-3.636-.275-.281-.384-.394.544-.083.388-.06 4.838-.738a.948.948 0 00.716-.535l2.1-4.473.183-.39.257-.545.255.546.183.389 2.099 4.474a.947.947 0 00.714.534l4.84.739.389.059.543.083-.384.394z"/></g></g></svg>