<svg width="238" height="262" xmlns="http://www.w3.org/2000/svg"><g fill="none" fill-rule="evenodd"><path fill="#FFF" d="M80.249 55.135l-.748 46.32-39.245 23.332-.407 46.048-39.85 21.58.605 45.897 38.703 22.173 39.995-22.75 39.474 22.748 39.29-22.924 39.975 22.92 38.995-22.158-.001-45.386-39.927-23.168.338-46.14-39.722-22.65-.002-45.98-38.898-22.377z"/><path d="M197.784 170.674l39.25 22.265v45.385h-1.55l-38.17-22.196.47-45.454zM40.257 124.785l38.926 21.896v91.052l-39.511-22.986.585-89.962zm79.04 45.889l38.62 22.204v44.682l-38.62-22.41v-44.476zm38.427-69.695l39.723 22.65-.34 46.14-1.865-.887-37.518-22.2v-45.703zm-39.208-68.033l39.208 22.052-.705 45.98-38.503-22.51V32.945z" fill="#B0CBFC"/><path d="M118.792 31.983L79.175 54.61v46.274l-39.622 23.133.034 45.787L0 192.414v46.275l39.62 22.694 39.616-22.697h.002l39.62 22.697 39.564-22.7 39.619 22.648 39.617-22.628v-46.296l-39.62-22.625-.027-46.538-39.593-22.362-.002-46.275-39.62-22.624h-.004zm.534 46.219l.022-44.335 37.669 21.554v44.688l-37.691-21.907zm-77.87 46.353l77.318-45.057 36.853 21.384-77.29 44.828-36.88-21.155zm117.175 22.126v-44.05l37.98 21.43.026 44.819-38.006-22.2zM41.019 214.693l-.064-88.258 37.323 21.48.002 88.653-37.261-21.875zm79.573-44.327l37.777-22.228 36.874 21.628-37.824 21.63-36.827-21.03zm77.447 45.34l-.001-44.195 38.218 21.709.003 44.72-38.22-22.233zm-77.837-1.016l-.001-42.493 36.819 21.025v43.02l-36.818-21.552zM2.112 238.05l38.19-22.347L77.81 237.88l-38.19 21.888-37.508-21.72zm78.658-.102l38.635-21.82 37.377 21.877-37.925 21.762-38.087-21.82zm80.448.72l36.499-21.743 37.145 21.763-36.821 21.03-36.823-21.05z" fill="#000"/><path d="M134.772 13.266a1.204 1.204 0 00-1.625-1.131l-2.408.89V9.27a1.204 1.204 0 00-1.625-1.132l-2.215.843V5.37a1.203 1.203 0 00-1.625-1.132l-3.853 1.54v-3.31a1.205 1.205 0 00-1.625-1.132L63.11 32.234a1.205 1.205 0 00-.783 1.132v87.493c-.018.12-.018.242 0 .36a16.445 16.445 0 0012.7 11.185l1.674.312h.228c.14 0 .28-.024.41-.072l56.65-31.996c.472-.177.784-.628.783-1.132v-86.25z" fill="#FFF"/><path d="M133.43 13.826l-.013 85.673v.177l-.152.086-55.52 31.036-.447.25V44.295l.155-.086 55.532-30.646.445-.245v.508zM76.403 42.601l-.095.054-.108-.02-1.232-.235a14.625 14.625 0 01-3.35-1.082l-.538-.25.521-.286 57.33-31.359.444-.243v3.676l-.153.086-52.819 29.66zm-.955 2.031l-.013 86.995v.301H74.86l-.029-.006a14.67 14.67 0 01-11.221-9.825l-.017-.046V36.62l.546.778a16.597 16.597 0 004.068 4.068c.085.073.148.117.216.153a16.504 16.504 0 006.213 2.607l.567.112.244.047v.247zm-11.242-11.7l55.15-30.484.445-.246V5.437l-.154.086-54.04 30.115-.255.143-.15-.25a12.196 12.196 0 01-.682-1.265l-.441-.944-.119-.254.245-.136zM125 5.478l.445-.24v3.479l-.156.086L69.24 39.694l-.171.095-.157-.12a14.792 14.792 0 01-2.163-2.037l-.244-.283.327-.177 58.169-31.694zm10.332 94.811V11.99a.924.924 0 00-.27-.66.925.925 0 00-.988-.217l-2.466.912-.404.15V7.898a.929.929 0 00-.93-.935.93.93 0 00-.329.058l-2.266.863-.407.154V3.906a.933.933 0 00-1.259-.878l-3.937 1.575-.412.164V.935a.928.928 0 00-.929-.935h-.003a.926.926 0 00-.326.058L62.411 31.672c-.402.153-.645.506-.644.894v89.572a1.114 1.114 0 00-.004.325 16.498 16.498 0 0012.76 11.198l1.686.315h.206a.92.92 0 00.295-.047l57.973-32.744c.406-.156.65-.507.649-.896z" fill="#000"/><path d="M126.119 29.066v-.296l-.019.296a.921.921 0 00-.327.066L84.409 51.55c-.401.154-.644.505-.644.894v60.464a.93.93 0 00.411.762.933.933 0 00.859.103l41.371-22.526c.402-.154.646-.506.645-.895V29.975a.936.936 0 00-.932-.909" stroke="#000" stroke-width="2"/><path d="M119.953 46.195a.919.919 0 00.02-.713.936.936 0 00-1.202-.54L92.427 59.533a.97.97 0 00-.56.508.935.935 0 001.182 1.254l26.345-14.593a.966.966 0 00.559-.508M94.452 72.637a.936.936 0 00.33-.061l24.607-14.396c.278-.11.462-.283.564-.511a.923.923 0 00.021-.713.937.937 0 00-1.203-.541L94.165 70.81c-.525.204-.768.744-.585 1.224a.936.936 0 00.872.602" fill="#000"/><path d="M75.447 44.632l-.013 86.995v.3h-.574l-.027-.005a14.67 14.67 0 01-11.223-9.825l-.016-.046V36.62l.546.779a16.597 16.597 0 004.068 4.067c.085.073.147.117.216.153a16.51 16.51 0 006.213 2.608l.567.11.243.048v.247z" fill="#B0CBFC"/></g></svg>