<svg width="29" height="29" xmlns="http://www.w3.org/2000/svg"><g fill-rule="nonzero" fill="none"><path d="M27.375 28.562c.858 0 1.554-.696 1.554-1.554V1.955c0-.858-.696-1.554-1.554-1.554H2.323c-.859 0-1.555.696-1.555 1.554v25.053c0 .858.696 1.554 1.555 1.554h25.052z" fill="#3C5A99"/><path d="M20.199 28.562V17.656h3.66l.548-4.25H20.2v-2.713c0-1.23.342-2.069 2.106-2.069l2.25-.001V4.822c-.389-.052-1.725-.168-3.279-.168-3.245 0-5.466 1.98-5.466 5.618v3.134h-3.67v4.25h3.67v10.906h4.389z" fill="#FFF"/></g></svg>