<svg width="33" height="40" xmlns="http://www.w3.org/2000/svg"><g fill-rule="nonzero" fill="none"><path d="M11.587 4.021c.304-.798.722-1.533 1.343-2.128 2.483-2.42 6.588-1.812 8.273 1.229 1.266 2.306 2.61 4.56 3.914 6.841 2.18 3.788 4.384 7.576 6.537 11.377 1.812 3.18-.152 7.196-3.75 7.74-2.204.33-4.269-.684-5.41-2.66-1.912-3.332-3.838-6.664-5.751-9.983a1.148 1.148 0 00-.14-.203c-.202-.164-.29-.405-.417-.62-.85-1.496-1.723-2.978-2.572-4.46-.545-.963-1.115-1.913-1.66-2.876a5.246 5.246 0 01-.697-2.787c.038-.507.102-1.014.33-1.47" fill="#3C8BD9"/><path d="M11.587 4.021c-.114.456-.216.912-.241 1.394-.038 1.064.228 2.052.76 2.977 1.394 2.395 2.787 4.802 4.168 7.209.127.215.228.43.355.633-.76 1.318-1.52 2.623-2.293 3.94-1.064 1.837-2.128 3.687-3.205 5.524-.051 0-.064-.025-.076-.063-.013-.102.025-.19.05-.292.52-1.9.089-3.585-1.216-5.03-.798-.874-1.812-1.368-2.977-1.532-1.52-.216-2.863.177-4.067 1.127-.215.165-.355.406-.608.532-.05 0-.076-.025-.089-.063.608-1.052 1.204-2.103 1.812-3.155 2.508-4.358 5.017-8.716 7.538-13.061.025-.051.063-.089.089-.14" fill="#FABC04"/><path d="M2.199 20.415c.24-.215.469-.443.722-.646 3.079-2.433 7.703-.672 8.374 3.18.165.925.076 1.811-.202 2.698-.013.076-.026.14-.051.216-.114.202-.215.418-.342.62-1.128 1.863-2.787 2.788-4.966 2.648-2.496-.177-4.46-2.052-4.802-4.535a5.069 5.069 0 01.697-3.37c.127-.228.279-.431.418-.659.063-.05.038-.152.152-.152" fill="#34A852"/><path d="M2.199 20.415c-.05.05-.05.14-.14.152-.012-.089.039-.14.09-.203l.05.051" fill="#FABC04"/><path d="M11.042 25.863c-.05-.089 0-.152.05-.216l.051.051-.101.165" fill="#E1C025"/><path d="M3.327 33.388c-1.432 0-2.623 1.153-2.623 2.572s1.191 2.559 2.623 2.559c.772 0 1.342-.253 1.799-.722.468-.469.608-1.115.608-1.634 0-.165-.013-.317-.038-.444h-2.37v.697h1.686c-.051.393-.178.684-.38.887-.241.24-.634.52-1.305.52a1.847 1.847 0 01-1.85-1.863c0-1.026.81-1.863 1.85-1.863.557 0 .975.216 1.266.507l.495-.494c-.419-.405-.976-.722-1.761-.722zm4.294 1.837c-.9 0-1.647.697-1.647 1.672 0 .963.735 1.673 1.647 1.673.913 0 1.647-.71 1.647-1.673 0-.962-.747-1.672-1.647-1.672m0 2.686c-.494 0-.924-.418-.924-1.014 0-.595.43-1.013.924-1.013.494 0 .925.405.925 1.013 0 .596-.43 1.014-.925 1.014m3.573-2.686c-.912 0-1.647.697-1.647 1.672 0 .963.735 1.673 1.647 1.673.9 0 1.647-.71 1.647-1.673 0-.962-.735-1.672-1.647-1.672m0 2.686c-.494 0-.925-.418-.925-1.014 0-.595.43-1.013.925-1.013.494 0 .925.405.925 1.013 0 .596-.418 1.014-.925 1.014m3.56-2.686c-.823 0-1.571.722-1.571 1.66 0 .925.748 1.647 1.571 1.647.393 0 .697-.178.861-.38h.026v.24c0 .634-.33.976-.874.976-.444 0-.71-.317-.824-.583l-.633.266c.177.443.659.976 1.457.976.848 0 1.558-.507 1.558-1.723v-2.965h-.684v.266h-.026a1.107 1.107 0 00-.861-.38m.063 2.66c-.494 0-.912-.418-.912-1 0-.583.418-1.014.912-1.014.494 0 .875.43.875 1.014 0 .582-.38 1-.875 1m2.04-4.294h.722v4.89h-.722v-4.89zm2.66 1.634c-.86 0-1.583.671-1.583 1.672 0 .938.71 1.673 1.66 1.673.772 0 1.216-.47 1.393-.735l-.57-.38c-.19.279-.456.456-.823.456-.38 0-.647-.165-.811-.507l2.242-.925-.076-.19c-.14-.367-.57-1.064-1.431-1.064m-.862 1.622a.917.917 0 01.874-.976c.292 0 .545.14.621.355l-1.495.62zM22.292 38.405l1.672-4.447h.646l1.673 4.447h-.634l-.43-1.204h-1.863l-.43 1.204h-.634zm1.254-1.736h1.483l-.723-2.001h-.025l-.735 2.001zM26.866 38.038c-.28-.317-.419-.697-.419-1.153 0-.444.14-.824.419-1.153.291-.317.62-.469 1.026-.469.228 0 .43.05.608.14.19.1.33.215.43.38h.026l-.025-.419v-1.406h.57v4.447h-.545v-.418h-.025c-.102.152-.241.279-.431.38-.19.101-.393.14-.608.14-.406 0-.748-.153-1.026-.47m1.799-.354c.19-.203.278-.469.278-.798 0-.317-.088-.583-.278-.786a.868.868 0 00-.685-.304.868.868 0 00-.684.304c-.19.203-.278.469-.278.786 0 .316.088.582.278.785.19.203.418.304.684.304a.82.82 0 00.685-.291M32.136 38.228c-.228.177-.52.278-.874.278-.304 0-.57-.076-.811-.24a1.356 1.356 0 01-.494-.634l.507-.215a.94.94 0 00.329.43c.14.102.304.153.469.153a.87.87 0 00.456-.114c.126-.076.177-.178.177-.28 0-.19-.152-.341-.443-.43l-.52-.127c-.595-.152-.887-.43-.887-.861 0-.279.115-.494.343-.672.228-.164.519-.253.861-.253.266 0 .507.063.735.19.215.127.367.304.456.52l-.507.215a.716.716 0 00-.279-.304.856.856 0 00-.443-.114.754.754 0 00-.405.114c-.114.076-.178.165-.178.279 0 .177.165.304.494.367l.456.114c.609.152.9.456.9.912.013.266-.114.494-.342.672" fill="#757575"/></g></svg>