<svg width="220" height="222" xmlns="http://www.w3.org/2000/svg" xmlns:xlink="http://www.w3.org/1999/xlink"><defs><path id="a" d="M.09.072h39.4V77.24H.09z"/></defs><g fill="none" fill-rule="evenodd"><path fill="#B0CBFC" d="M73.286 73.873l36.683 21.013-.028 42.944-36.666-22.477zM.54 157.86l109.43 62.946v-41.932L.54 115.866z"/><path d="M109.104 179.342v40.062L74.41 199.372V159.31l34.694 20.032zm-36.369-20.996v40.06l-34.693-20.031v-40.06l34.693 20.031zm-.837-42.476l-34.693 20.026-34.692-20.03 34.692-20.03 34.693 20.034zM38.881 94.873l33.854-19.547v39.093L38.881 94.873zm69.386 41.99l-34.701 20.03-34.685-20.03 34.692-20.03 34.694 20.03zm36.36 20.996l-34.686 20.03-34.694-20.03 34.694-20.03 34.687 20.03zM74.41 115.385v-40.06l34.694 20.029v40.061l-34.694-20.03zm.837-41.512l34.694-20.031 34.687 20.03-34.694 20.031-34.687-20.03zm105.748 62.99l-34.693 20.03-34.686-20.03 34.686-20.03 34.693 20.03zm-33.848-22.447V75.324l33.855 19.545-33.855 19.547zm70.212 1.45l-34.694 20.03-34.688-20.03 34.693-20.03 34.69 20.03zM36.367 137.348v40.062L1.675 157.378v-40.061l34.692 20.03zm183.086-22.207L110.361 52.15a.836.836 0 00-.838-.001L.42 115.14a.838.838 0 00-.418.726v41.993c0 .3.16.579.418.727l109.1 62.99a.84.84 0 00.837 0l109.097-62.99a.842.842 0 00.42-.727v-41.993a.84.84 0 00-.42-.725z" fill="#000"/><path d="M98.1 73.888V57.562c-3.87-2.243-6.48-6.419-6.48-11.21V23.669a3.24 3.24 0 116.481 0v16.2L98.1 4.232A3.24 3.24 0 01101.342.99a3.24 3.24 0 013.24 3.242v25.916-10.8l3.1-7.484c.567-1.37 2.045-1.819 3.28-.993l4.04 2.701a3.212 3.212 0 011.404 2.313c.345.044.697.166 1.032.39l4.04 2.7a3.208 3.208 0 011.403 2.31c.348.043.701.164 1.037.387l4.04 2.703a3.235 3.235 0 01.892 4.491 3.238 3.238 0 01-4.491.895l-.343-.23V40.95l-.002 12.96a5.4 5.4 0 01-5.4 5.398v14.581c-4.39 3.645-17.79 3.423-20.514 0M104.579 59.307" fill="#FFF"/><g transform="translate(90.72 .108)"><mask id="b" fill="#fff"><use xlink:href="#a"/></mask><path d="M37.456 28.308a2.42 2.42 0 01-3.367.67l-.34-.227c-.002 0-.002-.002-.003-.002l-1.816-1.215a.808.808 0 00-1.26.67c0 .263.125.52.359.676l1.457.975-.002 23.946a4.595 4.595 0 01-4.59 4.589.81.81 0 00-.81.81v14.183c-2.712 1.96-8.383 2.547-12.747 2.094-2.922-.3-5.182-1.043-6.148-2.005V58.756c1.781.809 3.711 1.254 5.67 1.254a.81.81 0 000-1.62c-2.12 0-4.217-.564-6.063-1.63l-.01-.005v-.001c-.002 0-.002 0-.002-.002-3.746-2.175-6.075-6.2-6.075-10.509V23.561c0-1.34 1.091-2.43 2.432-2.43a2.433 2.433 0 012.43 2.382v16.243c0 .003-.002.004-.002.005 0 .448.363.81.81.81a17.42 17.42 0 0112.389 5.13.81.81 0 001.146-1.146c-3.427-3.42-7.921-5.364-12.724-5.564V4.123c0-1.34 1.09-2.431 2.431-2.431 1.34 0 2.43 1.09 2.43 2.431v25.918a.81.81 0 001.62 0V19.4l3.038-7.335c.182-.434.493-.74.877-.855.383-.116.813-.037 1.206.227l4.042 2.7c.589.393.96 1.009 1.047 1.734 0 .002 0 .004.002.006v.021a2.406 2.406 0 01-.364 1.585 2.435 2.435 0 01-3.375.7l-.007-.005h-.002l-.337-.226-.007-.008-1.817-1.214a.815.815 0 00-1.124.223.81.81 0 00.223 1.125l1.457.974-.002 10.989a.81.81 0 101.62 0l.002-10.061a4.058 4.058 0 004.7-1.576l.005-.006a.044.044 0 01.005-.01c.007-.007.011-.017.017-.025.28-.429.462-.91.559-1.412l3.873 2.59c.59.391.96 1.007 1.048 1.73l.001.006.006.06a2.382 2.382 0 01-.392 1.58 2.43 2.43 0 01-3.355.665h-.002s0-.003-.003-.003l-.344-.23-.003-.003-1.816-1.213a.81.81 0 00-.899 1.348l1.456.973v5.585a.81.81 0 001.62 0v-4.655a4.035 4.035 0 002.124.146 4.031 4.031 0 002.575-1.724c.295-.442.487-.94.588-1.46l3.876 2.594c.539.359.905.906 1.031 1.541a2.413 2.413 0 01-.364 1.826m1.954-2.143a4.016 4.016 0 00-1.722-2.57l-4.041-2.705a3.313 3.313 0 00-.792-.386 4.013 4.013 0 00-1.647-2.31l-4.04-2.7a3.256 3.256 0 00-.788-.387 4.006 4.006 0 00-1.646-2.316l-4.042-2.7c-.79-.53-1.728-.689-2.574-.43-.846.255-1.54.906-1.905 1.785l-1.542 3.721V4.123a4.055 4.055 0 00-4.05-4.051A4.057 4.057 0 006.57 4.123v16.198a4.025 4.025 0 00-2.428-.81A4.056 4.056 0 00.09 23.56v22.682c0 4.728 2.471 9.156 6.48 11.668v15.87c0 .182.063.36.176.503 1.54 1.933 5.313 2.587 7.424 2.805a29.99 29.99 0 003.043.151c4.156 0 8.762-.812 11.2-2.836a.814.814 0 00.292-.623V59.957a6.217 6.217 0 005.4-6.156l.002-23.016c.675.235 1.404.29 2.123.146a4.02 4.02 0 002.574-1.722 4.022 4.022 0 00.607-3.044" fill="#000" mask="url(#b)"/></g></g></svg>