<svg width="92" height="92" xmlns="http://www.w3.org/2000/svg"><g stroke="#000" stroke-width="2.2" fill="none" fill-rule="evenodd" stroke-linecap="round" stroke-linejoin="round"><path d="M40.106 22.5l-9.075 21.903 12.004-28.974a3.948 3.948 0 015.164-2.126 3.945 3.945 0 012.146 5.157l-12 28.971 9.953-24.028c.82-1.98 3.036-3.139 5.056-2.426a3.954 3.954 0 012.351 5.237L44.143 54.11l7.593-18.323c.832-2.013 3.152-2.965 5.17-2.128a3.947 3.947 0 012.149 5.16L44.417 74.163l-.002-.005c-1.335 3.237-3.869 5.614-6.884 6.856a14.202 14.202 0 00-7.716 7.697c-8.571 3.556-18.394-.514-21.943-9.087l-.004.002 3.832-9.253C8.377 66.04 7.377 60.128 9.61 54.74l4.385-22.048c.279-1.407 1.88-2.187 3.1-1.434 2.733 1.685 4.277 4.945 3.615 8.267l.002.002-2.071 10.409 1.306.54 12.84-31.008a3.95 3.95 0 015.17-2.125 3.952 3.952 0 012.15 5.158zM57.762 17.37l9.07 21.902-9.07-21.903z"/><path d="M86.168 65.237c3.323-4.331 4.326-10.244 2.085-15.632l-4.38-22.037c-.295-1.483-1.994-2.166-3.261-1.341-2.633 1.713-4.102 4.91-3.454 8.163v.004l2.07 10.409-1.307.54L65.08 14.337a3.94 3.94 0 00-5.166-2.124 3.94 3.94 0 00-2.15 5.157l-2.848-6.872c-.806-1.944-2.965-3.093-4.962-2.433a3.939 3.939 0 00-2.505 5.011 3.947 3.947 0 012.898 5.386l-1.951 4.713a3.954 3.954 0 015.166-2.118 3.951 3.951 0 012.146 5.157l-3.958 9.552a3.952 3.952 0 015.158-2.109 3.949 3.949 0 012.15 5.16L50 60.69l3.452 8.338v-.006c1.338 3.243 3.873 5.62 6.888 6.861a14.195 14.195 0 017.713 7.698c8.573 3.552 18.396-.52 21.945-9.093l.002.003-3.832-9.254zM19.6 2l11.735 11.733L19.6 2zM4.933 22.532h16.594H4.933zM37.2 4.932v7.335-7.335zM2 7.867l23.466 9.717L2 7.867z"/></g></svg>