<svg width="168" height="193" xmlns="http://www.w3.org/2000/svg" xmlns:xlink="http://www.w3.org/1999/xlink"><defs><path id="a" d="M0 .227h167.523v160.105H0z"/></defs><g fill="none" fill-rule="evenodd"><path fill="#FFF" d="M67.46 41.722l15.104-9.101 21.724 1.396 13.065 7.705.607 29.652-25.574 13.783-25.07-14.336z"/><path fill="#FFF" d="M.684 119.263l.005 29.078 75.975 43.67 90.582-52.217-.288-28.963-59.85-34.728-14.722 9.054-16.208-9.192z"/><path d="M128.627 103.28l-.28.163-23.524 13.591-.282.164-.282.162V88.876l.282.162.282.163 23.523 13.592.281.162.282.163-.282.162zm2.612-.162c0-.249-.16-.5-.419-.655l-27.05-15.63a.722.722 0 00-.375-.118.724.724 0 00-.37.116l-27.062 15.635c-.254.153-.413.403-.413.652s.16.5.419.655l27.043 15.624c.125.062.29.105.42.105.057 0 .19 0 .25-.04l.017-.012.04-.019.131-.045a1.11 1.11 0 00.131-.106l.015-.014.035-.026 26.775-15.47c.254-.154.413-.403.413-.652zm-40.333 21.933l-.281.163-23.523 13.59-.283.165-.281.162v-28.485l.281.163.283.164 23.523 13.59.28.163.283.163-.282.162zm2.612-.162c0-.25-.16-.5-.419-.655l-27.05-15.629a.718.718 0 00-.376-.119.728.728 0 00-.37.116l-27.061 15.635c-.254.153-.414.403-.414.652s.16.5.42.654L65.29 141.17c.126.061.29.104.42.104.058 0 .19 0 .25-.04l.018-.012.039-.019.132-.045c.041-.029.083-.063.13-.107l.015-.014.034-.025 26.776-15.47c.255-.153.414-.403.414-.652z" fill="#000"/><g transform="translate(0 32.393)"><mask id="b" fill="#fff"><use xlink:href="#a"/></mask><path d="M165.292 78.382l-.365.212-31.608 18.262-56.194 32.957-.122.07-.087.05-.087-.05-.122-.07-74.128-42.54-.365-.21-.262-.151.262-.15.364-.212 73.39-42.146.123-.07.087-.052.087.05.123.072 15.69 9.066.073.022c.131.047.201.072.295.072l.037-.002.008-.001h.013a.46.46 0 01.047-.006c.113-.016.204-.047.342-.093l14.692-8.487.122-.07.087-.05.088.05.122.07 56.923 32.894.365.21.261.152-.26.15zM76.22 131.148v27.399l-.262-.151-.366-.212-74.127-42.538-.122-.07-.087-.051V88.001l.262.15.365.21 31.74 18.32 42.388 24.246.122.07.087.05v.101zm-8.033-92.976l-.122-.07-.086-.05V10.544l.261.151.366.212L88.511 22.41l3.099 1.794.122.07.087.05v27.414l-.261-.15-.367-.21-14.569-8.395a.65.65 0 00-.223-.083l-.04-.008-.028-.005-.025-.015-.036-.021-8.084-4.678zm98.982 39.522L109.693 44.48l-.365-.211-.261-.15.261-.152.365-.211 8.267-4.776c.214-.128.349-.337.349-.544V9.519c-.122-.3-.221-.507-.425-.63a.738.738 0 00-.176-.075l-.02-.006-.05-.019L103.395.56v.334h-1.947l14.212 8.182.366.211.261.15-.26.152-.366.212-19.977 11.562-3.028 1.75-.122.07-.087.05-.087-.05-.122-.07-3.015-1.742L69.232 9.8l-.365-.212-.262-.151.262-.15.366-.212L83.444.893h-1.443V.227l-15 8.667c-.213.128-.348.338-.348.544v28.999c0 .207.136.417.355.548l7.326 4.232.365.21.262.152-.262.15-.365.213L.348 86.368c-.214.129-.348.337-.348.543v28.93c0 .207.136.417.355.548l75.943 43.634.032.02.023.012.018.02.025.026a.783.783 0 00.178.151c.016.007.177.08.342.08.093 0 .164-.026.294-.072l.104-.037 89.86-52.439c.214-.129.349-.338.349-.544V78.242c0-.208-.136-.417-.355-.548z" fill="#000" mask="url(#b)"/></g><path d="M1.255 120.394l.261.15.366.211 31.74 18.319L76.01 163.32l.122.07.088.05v27.5l-.262-.152-.365-.211-74.128-42.539-.122-.07-.087-.05v-27.525zm65.283-9.748l.281.163.283.164 23.523 13.59.28.163.283.163-.282.162-.281.163-23.523 13.59-.564.327v-28.485zm37.721-21.77l.564.325 23.523 13.592.563.325-.282.162-.28.163-23.524 13.591-.282.164-.282.162V88.876zm-88.44-17.822l25.428 14.523v29.7l-25.429-14.884V71.054zM67.977 42.94l.261.151.366.212 19.906 11.5 3.1 1.794.12.07.088.05v27.416l-.262-.152-.366-.21-14.568-8.395a.68.68 0 00-.224-.083l-.04-.007-.028-.006-.026-.015-.034-.02-8.085-4.679-.122-.07-.086-.05V42.938z" fill="#B0CBFC"/><path d="M92.22 39.684c-7.283 0-13.84-4.04-17.109-10.545a19.246 19.246 0 010-17.192C78.38 5.439 84.935 1.396 92.219 1.396l.227-.002c4.45 0 8.697 1.59 12.038 4.492l-4.68 4.68a11.432 11.432 0 00-7.418-2.714l-.178.001c-5.319 0-10.061 3.485-11.79 8.672a12.648 12.648 0 000 8.04l.161.474h.015c1.863 4.918 6.476 8.187 11.633 8.187 2.73 0 5.197-.695 7.135-2.01l.306-.209V31a9.934 9.934 0 003.954-6.27l.148-.821H92.916V17.66h17.424a22.87 22.87 0 01.24 3.334c0 5.704-2.02 10.705-5.685 14.08l-.316.291c-3.23 2.826-7.493 4.318-12.36 4.318" fill="#FFF"/><path d="M92.445.697c-.075 0-.15 0-.226.002a19.839 19.839 0 00-17.731 10.935 19.86 19.86 0 000 17.819 19.845 19.845 0 0017.731 10.928c5.351 0 9.864-1.757 13.152-4.79l-.004-.003c3.753-3.455 5.91-8.558 5.91-14.593 0-1.348-.11-2.705-.344-4.031H92.22v7.64h10.717a9.182 9.182 0 01-3.966 6.03v.004c-1.778 1.208-4.071 1.891-6.744 1.891-5.176 0-9.565-3.492-11.14-8.187h-.007a11.888 11.888 0 010-7.597c1.567-4.703 5.964-8.194 11.14-8.194l.168-.002c2.77 0 5.435 1.06 7.443 2.976l5.665-5.664A19.071 19.071 0 0092.445.697m0 1.394a17.6 17.6 0 0111.006 3.842L99.753 9.63a12.126 12.126 0 00-7.366-2.475l-.168.001c-5.63 0-10.639 3.677-12.461 9.144a13.358 13.358 0 000 8.488l.328.948h.037c2.07 4.937 6.815 8.188 12.103 8.188 2.87 0 5.474-.738 7.527-2.132l.611-.42v-.023a10.64 10.64 0 003.944-6.497l.297-1.641H93.613v-4.853h16.117c.1.859.152 1.743.152 2.637 0 5.508-1.94 10.326-5.459 13.568l-.264.244c-3.106 2.736-7.227 4.18-11.94 4.18-7.018 0-13.334-3.893-16.485-10.16a18.552 18.552 0 010-16.567C78.884 5.989 85.2 2.093 92.235 2.093l.21-.002M40.887 84.76l-23.636-13.5 23.964-14.099 23.668 13.883L40.887 84.76zm-.539 29.02L16.716 99.944V72.082l23.632 13.495v28.202zm26.328-42.726L41.214 56.12 15.818 71.054v29.339l25.429 14.885 25.43-14.885V71.054z" fill="#000"/><path d="M40.887 84.76l-23.636-13.5 23.964-14.099 23.668 13.883L40.887 84.76zm-.539 29.02L16.716 99.944V72.082l23.632 13.495v28.202zm26.328-42.726L41.214 56.12 15.818 71.054v29.339l25.429 14.885h0l25.43-14.885V71.054z" stroke="#000" stroke-width=".523" stroke-linecap="round" stroke-linejoin="round"/><path fill="#FFF" d="M40.887 84.76l-23.636-13.5 23.964-14.099 23.668 13.883z"/><path d="M36.065 71.384V46.897h-8.24v-8.148h8.24v-7.735c0-7.462 4.328-11.917 11.576-11.917 2.84 0 5.38.175 6.667.302v7.215l-4.356.002c-4.782 0-5.427 2.7-5.427 5.343v6.79h9.354l-1.05 8.148h-8.304v24.487h-8.46z" fill="#FFF"/><path d="M47.642 18.4c-7.286 0-12.274 4.447-12.274 12.614v7.037h-8.24v9.543h8.24V72.08h9.854V47.594h8.22l1.23-9.543h-9.45V31.96c0-2.763.768-4.646 4.73-4.646l5.053-.002v-8.535c-.874-.116-3.874-.376-7.363-.376m0 1.394c2.407 0 4.594.127 5.969.242v5.882l-3.66.001c-5.488 0-6.123 3.447-6.123 6.04v7.487h9.259l-.87 6.754h-8.389v24.487h-7.066V46.2h-8.24v-6.754h8.24v-8.432c0-7.025 4.068-11.22 10.88-11.22" fill="#000"/></g></svg>