<svg width="160" height="191" xmlns="http://www.w3.org/2000/svg"><g fill="none" fill-rule="evenodd"><path fill="#FFF" d="M79.869 36.654l24.789 14.541L79.172 65.79 54.415 51.65z"/><path d="M.94 145.149l25.217 14.401v28.974L.941 174.034V145.15zm53.27 0l24.751 14.136v29.239l-24.751-14.49V145.15zm53.268-.253l24.752 14.136v29.492l-24.752-14.49v-29.138zM27.576 98.728l24.751 14.136v29.957l-24.751-14.49V98.729zm53.268 0l24.751 14.136v29.673L80.844 128.05V98.73zM54.21 52.827l24.75 14.136v28.922l-24.75-14.49V52.827z" fill="#B0CBFC"/><path fill="#FFF" d="M1.44 144.143l25.44-14.977 24.788 14.54-25.47 14.576zM28.19 97.75l25.801-15.215 24.789 14.54-25.832 14.815zm51.104 60.532l-24.757-14.139 25.594-14.978 24.788 14.54zm2.242-60.572l24.967-14.736 24.79 14.54-25 14.335zm51.337 60.47l-24.757-14.139 25.022-14.747 24.788 14.54z"/><path d="M53.268 51.205v30.698l-.034-.02-26.6 15.642v30.698l-.034-.02L0 143.844v30.73l26.634 15.59 26.634-15.59 26.635 15.59 26.634-15.59 26.634 15.59 26.634-15.59v-30.73l-26.634-15.622V97.525l-26.634-15.622V51.205L79.868 35.562l-26.6 15.643zm1.147.445l25.453-14.995 24.79 14.54L79.171 65.79 54.415 51.65zm-.206 29.745V52.827l24.752 14.136v28.921L54.21 81.395zM28.191 97.751l25.8-15.216 24.789 14.54-25.832 14.815L28.19 97.75zm53.345-.04l24.966-14.737 24.79 14.54-24.999 14.335-24.757-14.138zm-.692 30.338V98.73l24.751 14.136v29.673L80.844 128.05zm-53.269.283V98.73l24.752 14.136v29.956l-24.752-14.489zm26.961 15.811l25.594-14.977 24.789 14.54-25.625 14.576-24.758-14.139zm-53.095 0l25.438-14.977 24.788 14.54-25.47 14.576-24.756-14.139zm106.675-.103l25.021-14.745 24.79 14.54-25.054 14.345-24.757-14.14zm-.638 29.995v-29.139l24.751 14.137v29.49l-24.751-14.488zm-53.269 0v-28.886l24.752 14.136v29.238L54.21 174.035zm-53.268 0v-28.886l25.216 14.401v28.973L.941 174.035zm80.656-163.99l-6.772-5.417 6.772 5.417zM71.815 2.22c-.388.162-.78.37-1.094.627.313-.257.706-.465 1.094-.627M70.898 6.224l.047.091c.191.374 1.008 1.295 2.076 2.41-1.068-1.115-1.885-2.036-2.076-2.41l-.047-.091zm17.799 11.564l.823 1.268-.823-1.268m-9.623 6.537c.018-.007.035-.015.053-.021-.018.006-.035.014-.053.021m.236-.06c.032-.006.06-.014.092-.018-.032.004-.06.012-.091.018m.394-.038c-.037 0-.07.005-.106.007.036-.002.069-.007.106-.007m.241.014c.03.003.059.002.09.006-.031-.004-.06-.003-.09-.006m.309.041c.047.008.091.013.14.022-.048-.01-.093-.014-.14-.022m-3.313 4.287c-.024.004-.047.005-.07.008.023-.003.046-.004.07-.008m-9.9-22.318a3.163 3.163 0 00-.338-.022c-.056 0-.112.006-.168.008.17-.008.339-.003.506.014m8.954 9.189a1.265 1.265 0 00-.05-.02l.05.02m-9.619-2.728c.112.012.224.023.338.023.056 0 .111-.007.167-.01-.17.009-.338.004-.505-.013m5.256 9.108l.442.397zm-.463-2.207c-.041.112-.083.216-.122.332.04-.116.08-.22.121-.332m4.264-4.346l-.07-.01.07.01m-.799 0c.04-.008.076-.01.115-.014-.039.004-.076.006-.115.014m1.14.088c-.02-.007-.038-.014-.06-.02.022.005.04.013.06.02M67.88 14.68l.089.111-.09-.111m6.386.683zm.825-.129c-.022 0-.04-.005-.063-.005-.014 0-.032.003-.047.004l.11.001m15.635 7.669" fill="#000"/><path d="M79.57 52.214c.136.003.272.007.407.007-.135 0-.271-.004-.408-.007m-4.825-.741c-.133-.041-.266-.082-.399-.127.133.045.266.086.399.127M79.274 52.206c-.143-.005-.285-.014-.428-.022.143.008.285.017.428.022m.76-1.824h.03a20.874 20.874 0 00-.03 0M63.292 13.785h-.006a1.547 1.547 0 00.006 0m.686 7.611l-.024-.1.024.1" fill="#000"/><path d="M67.815 36.351c-.493-.347-4.624-3.397-4.03-7.409.684-4.626-.268-7.728-.309-7.857a.653.653 0 00-.025-.066l-2.62-5.548.08-.172c.223-.472.851-1.597 1.903-1.86.94-.237 2.097.263 3.388 1.467l.066.076c.543.605 3.381 3.937 4.029 7.41a.522.522 0 00.164.29l5.975 5.371c.152.137.384.17.565.079a.508.508 0 00.288-.493c-.002-.023-.157-2.46 1.133-3.428.649-.492 1.631-.516 2.908-.055a.52.52 0 00.654-.306.512.512 0 00-.307-.655c-.68-.246-1.323-.376-1.912-.387l-.282-.004-.09-.269c-.484-1.406-2.05-6.185-1.929-8.606a.509.509 0 00-.157-.396c-1.685-1.594-6.176-5.965-6.721-7.035l-.138-.266c-.426-.808-1.011-1.915-.63-2.866.239-.599.859-1.109 1.843-1.517l.22-.093.187.15L81.95 9.85a45.168 45.168 0 002.442 3.944c.202.288 2.682 4.109 3.966 6.09a.65.65 0 00.049.065c1.457 1.689 2.39 2.61 2.766 2.732a.517.517 0 00.644-.327.512.512 0 00-.273-.623l-.047-.025c-.382-.273-1.455-1.43-2.283-2.387l-.078-.115-1.56-2.402 3.586 1.722c.304.128 3.012 1.416 2.717 6.11-.315 5.026-6.29 15.585-6.544 16.032a.48.48 0 00-.064.182c-.08.57-.758 5.626.105 7.859l.1.261-.209.186c-.572.507-2.566 1.346-5.716 1.578-.49.035-.99.054-1.488.054-2.863 0-6.813-.575-9.366-3.313l-.122-.13.559-6.848a.708.708 0 00-.003-.107c-.012-.1-.332-2.485-3.316-4.037zm8.504-21.2l.181.1.025.204c.316 2.577 1.387 5.909 1.832 7.222l.111.323-.302.161c-.128.07-.252.15-.366.235-.689.519-1.157 1.342-1.39 2.446l-.146.683-4.998-4.493-.027-.127c-.125-.57-.31-1.163-.566-1.813l-.054-.136.047-.14c.894-2.666 2.091-4.337 3.461-4.832a2.65 2.65 0 01.9-.158 2.74 2.74 0 011.292.325zm-1.318-1.342c-.41 0-.796.064-1.18.197-1.374.478-2.548 1.778-3.49 3.864l-.325.72-.392-.685a22.96 22.96 0 00-2.223-3.184l-.436-.522.667-.132c.431-.086.84-.225 1.213-.416a4.677 4.677 0 002.521-3.645l.098-.854.594.622a126.61 126.61 0 003.344 3.342l.743.72-1.134-.027zM63.233 8.353a3.629 3.629 0 011.815-2.129 3.604 3.604 0 011.656-.4c1.385 0 2.636.765 3.263 1.997.443.869.522 1.86.219 2.79a3.632 3.632 0 01-1.816 2.129 3.616 3.616 0 01-1.655.398 3.645 3.645 0 01-3.264-1.995 3.627 3.627 0 01-.218-2.79zm6.426 39.492c2.932 3.457 7.786 3.974 10.418 3.974 3.433 0 6.232-.814 7.483-1.622 1.095-.706.987-1.385.826-1.727-.686-1.443-.383-5.41-.127-7.305l.048-.145c.642-1.134 6.272-11.231 6.592-16.323.35-5.579-3.178-7.049-3.329-7.109l-.01-.005-4.245-2.04a.515.515 0 00-.294-.029l-.257.04-.14-.22a144.849 144.849 0 00-1.397-2.128c-1.326-1.885-2.459-3.988-2.469-4.008a.498.498 0 00-.127-.15L72.299.783A.523.523 0 0071.813.7c-1.562.535-2.554 1.305-2.947 2.29-.194.486-.238 1.013-.135 1.612l.115.669-.642-.217a4.707 4.707 0 00-1.508-.25c-.739 0-1.45.172-2.113.51a4.686 4.686 0 00-2.043 6.295c.035.068.074.132.112.197l.317.527-.504.145c-1.883.543-2.666 2.835-2.674 2.858a.516.516 0 00.023.382l2.7 5.725c.152.537.853 3.333.258 7.35-.72 4.847 4.257 8.268 4.47 8.411.017.01.035.023.055.032 2.194 1.122 2.696 2.716 2.799 3.178l.01.083-.568 6.977a.498.498 0 00.12.372z" fill="#000"/><path d="M81.133 50.353c.137-.007.268-.015.388-.024 2.352-.173 3.994-.684 4.865-1.104-.871.42-2.513.93-4.865 1.104-.12.009-.252.017-.388.024m-.127.007" fill="#000"/><path d="M76.238 15.298l.106.059.015.119c.317 2.595 1.392 5.938 1.839 7.254l.064.188-.175.095a3.036 3.036 0 00-.388.249c-.722.543-1.211 1.4-1.453 2.546l-.085.398-.303-.273-4.383-3.94-.056-.05-.016-.074a12.022 12.022 0 00-.574-1.838l-.031-.08.027-.08c.877-2.619 2.038-4.253 3.359-4.728.273-.1.556-.15.843-.15.596 0 1.046.214 1.211.305" fill="#FFF"/><path d="M67.815 36.351c-.493-.347-4.624-3.397-4.03-7.409.684-4.626-.268-7.728-.309-7.857a.653.653 0 00-.025-.066l-2.62-5.548.08-.172c.223-.472.851-1.597 1.903-1.86.94-.237 2.097.263 3.388 1.467l.066.076c.543.605 3.381 3.937 4.029 7.41a.522.522 0 00.164.29l5.975 5.371c.152.137.384.17.565.079a.508.508 0 00.288-.493c-.002-.023-.157-2.46 1.133-3.428.649-.492 1.631-.516 2.908-.055a.52.52 0 00.654-.306.512.512 0 00-.307-.655c-.68-.246-1.323-.376-1.912-.387l-.282-.004-.09-.269c-.484-1.406-2.05-6.185-1.929-8.606a.509.509 0 00-.157-.396c-1.685-1.594-6.176-5.965-6.721-7.035l-.138-.266c-.426-.808-1.011-1.915-.63-2.866.239-.599.859-1.109 1.843-1.517l.22-.093.187.15L81.95 9.85a45.168 45.168 0 002.442 3.944c.202.288 2.682 4.109 3.966 6.09a.65.65 0 00.049.065c1.457 1.689 2.39 2.61 2.766 2.732a.517.517 0 00.644-.327.512.512 0 00-.273-.623l-.047-.025c-.382-.273-1.455-1.43-2.283-2.387l-.078-.115-1.56-2.402 3.586 1.722c.304.128 3.012 1.416 2.717 6.11-.315 5.026-6.29 15.585-6.544 16.032a.48.48 0 00-.064.182c-.08.57-.758 5.626.105 7.859l.1.261-.209.186c-.572.507-2.566 1.346-5.716 1.578-.49.035-.99.054-1.488.054-2.863 0-6.813-.575-9.366-3.313l-.122-.13.559-6.848a.708.708 0 00-.003-.107c-.012-.1-.332-2.485-3.316-4.037" fill="#FFF"/><path d="M76.015 25.759l-4.383-3.94c-.14-.64-.344-1.267-.584-1.874.852-2.542 1.961-4.129 3.216-4.581a2.307 2.307 0 011.86.14c.32 2.613 1.402 5.978 1.851 7.302a3.261 3.261 0 00-.417.268c-.913.687-1.344 1.746-1.543 2.685" fill="#FFF"/><path d="M64.813 5.763a4.179 4.179 0 015.615 1.823 4.18 4.18 0 01-1.823 5.614 4.18 4.18 0 01-5.615-1.822 4.18 4.18 0 011.823-5.615" fill="#000"/></g></svg>