<svg width="157" height="177" xmlns="http://www.w3.org/2000/svg" xmlns:xlink="http://www.w3.org/1999/xlink"><defs><path id="a" d="M.62.042h52.14v24.427H.619z"/><path id="c" d="M.619.042h52.142v24.427H.619z"/></defs><g fill="none" fill-rule="evenodd"><path fill="#FFF" d="M103.66 86.405l26.069 14.95 27.08-15.467L130.64 70.54z"/><path d="M0 85.888l26.135 14.926v30.483l26.135 14.926v30.525L26.135 161.45v-30.11L0 116.04V85.888zm52.27 31.039v-29.93L26.135 71.594V40.437L52.27 55.363v30.525l26.134 14.926v30.483l26.135 14.926v30.525L78.404 161.45v-29.054L52.27 116.927zm26.134-76.49l26.135 14.926v30.525l26.135 14.926v31.582L104.54 116.98V86.92L78.404 71.621V40.437z" fill="#B0CBFC"/><path fill="#FFF" d="M51.306 86.455L78.37 70.539l26.169 15.35-26.91 15.368zM0 85.888l25.22 15.448 27.05-15.448-26.168-15.35zM26.135 40.51l26.134-14.913 25.67 15.18-25.333 14.79z"/><path fill="#FFF" d="M77.496 40.971l27.01-15.884 26.168 15.35-27.014 15.428zm-51.398 90.347l26.138-15.37 26.168 15.35-27.015 15.427z"/><path fill="#FFF" d="M77.445 131.845l27.06-15.898 26.169 15.35-27.016 15.429z"/><g transform="translate(50.794 .618)"><mask id="b" fill="#fff"><use xlink:href="#a"/></mask><path d="M52.761 12.255l-2.416 2.416c-13.064 13.065-34.245 13.065-47.31 0L.618 12.255 3.034 9.84C16.1-3.225 37.281-3.225 50.345 9.84l2.416 2.416z" fill="#FFF" mask="url(#b)"/></g><path d="M129.743 100.283l-6.22-3.553L105.5 86.395l25.142-14.785 24.324 14.267-25.222 14.406zm.008 30.472l-7.14-4.188-17.149-10.115V87.48l17.596 10.048 6.67 3.826.015-.008.008.005v29.404zm-26.094 14.908l-16.26-9.23-8.082-4.616 25.19-14.799 17.626 10.338 6.68 3.941-25.154 14.366zm-.041 29.475L79.328 160.92v-28.006l7.591 4.31 16.697 9.535v28.379zm-25.99-74.943L57.785 89.04l-4.592-2.623L78.37 71.61l24.325 14.267-25.07 14.318zm-.145 30.56l-3.945-2.313L53.193 116.4V87.515l4.121 2.318 20.167 11.518v29.404zm-26.095 14.908l-9.693-5.48-14.634-8.359 25.178-14.806 20.83 12.22 3.478 2.057-25.159 14.368zm-.04 29.475L27.06 160.92v-27.95l14.184 8.02 10.103 5.77v28.379zM25.22 100.273l-4.96-2.815L.924 86.416 26.102 71.61l12.47 7.315 11.826 6.969-25.18 14.38zm-.008 29.456L.923 115.512V87.546l18.878 10.715 5.41 3.09v28.378zm1.848-87.622l24.287 13.816v29.423L39.042 78.13 27.06 71.068v-28.96zM52.237 26.16l24.339 14.276L51.63 55 27.06 40.965l25.178-14.806zm27.09 15.869L103.616 55.9v29.41L79.328 71.092V42.028zm25.179-15.87l24.324 14.269-25.17 14.375-24.32-13.844 25.166-14.8zm52.303 59.73l-26.136-15.33V40.437l-26.168-15.35-26.1 15.35-26.169-15.35-26.102 15.35v30.121l-.032-.019L0 85.889v30.153l26.159 15.312-.025 1.092v29.004l26.136 15.298 26.134-15.298 26.136 15.298 26.133-15.298v-30.11l26.136-15.299V85.89z" fill="#000"/><g transform="translate(50.794 .618)"><mask id="d" fill="#fff"><use xlink:href="#c"/></mask><path d="M3.734 10.54C9.866 4.407 18.018 1.03 26.69 1.03c8.672 0 16.824 3.377 22.956 9.51l1.716 1.715-1.716 1.716c-6.132 6.132-14.284 9.509-22.956 9.509-8.672 0-16.824-3.377-22.956-9.509l-1.716-1.716 1.716-1.715zM26.69 24.47c8.561 0 17.123-3.267 23.655-9.799l2.416-2.416-2.416-2.415C43.813 3.307 35.251.04 26.69.04 18.128.041 9.567 3.307 3.034 9.84L.62 12.255l2.415 2.416c6.533 6.532 15.094 9.798 23.656 9.798z" fill="#000" mask="url(#d)"/></g><path d="M71.849 21.754a8.794 8.794 0 10-.001-17.587 8.794 8.794 0 000 17.587" fill="#000"/></g></svg>